<svg width="40" height="40" viewBox="0 0 40 40" fill="none" xmlns="http://www.w3.org/2000/svg">
<rect x="0.5" y="0.5" width="39" height="39" rx="11.5" fill="white"/>
<rect x="0.5" y="0.5" width="39" height="39" rx="11.5" stroke="#F2F2F2"/>
<path fill-rule="evenodd" clip-rule="evenodd" d="M24.0199 14.8711H15.9779C13.175 14.8711 11.418 16.8558 11.418 19.6636V24.206C11.418 27.0148 13.1663 28.9985 15.9779 28.9985H24.0189C26.8306 28.9985 28.5808 27.0148 28.5808 24.206V19.6636C28.5808 16.8558 26.8306 14.8711 24.0199 14.8711Z" stroke="black" stroke-width="1.5" stroke-linecap="round" stroke-linejoin="round"/>
<path d="M16.8848 19.1445C16.9587 19.8684 17.2934 20.5173 17.775 21.0096C18.3509 21.5748 19.139 21.928 20.0019 21.928C21.616 21.928 22.943 20.7119 23.1191 19.1445" stroke="black" stroke-width="1.5" stroke-linecap="round" stroke-linejoin="round"/>
<path d="M23.8702 14.8712C23.8702 12.7337 22.1375 11 19.9991 11C17.8616 11 16.1289 12.7337 16.1289 14.8712" stroke="black" stroke-width="1.5" stroke-linecap="round" stroke-linejoin="round"/>
</svg>
