<svg width="15" height="14" viewBox="0 0 15 14" fill="none" xmlns="http://www.w3.org/2000/svg">
<path fill-rule="evenodd" clip-rule="evenodd" d="M7.08471 5.2168C5.96619 5.2168 5.05615 6.12532 5.05615 7.24311C5.05615 8.3609 5.96619 9.26943 7.08471 9.26943C8.20324 9.26943 9.1125 8.3609 9.1125 7.24311C9.1125 6.12532 8.20324 5.2168 7.08471 5.2168Z" fill="black"/>
<path fill-rule="evenodd" clip-rule="evenodd" d="M10.7832 4.354C10.3632 4.354 10.0206 4.01358 10.0206 3.59579C10.0206 3.17652 10.3632 2.8361 10.7832 2.8361C11.2032 2.8361 11.5451 3.17652 11.5451 3.59579C11.5451 4.01358 11.2032 4.354 10.7832 4.354ZM7.08427 10.3747C5.35711 10.3747 3.95122 8.97032 3.95122 7.24316C3.95122 5.516 5.35711 4.11158 7.08427 4.11158C8.81216 4.11158 10.2173 5.516 10.2173 7.24316C10.2173 8.97032 8.81216 10.3747 7.08427 10.3747ZM10.3065 0H4.09122C1.76353 0 0.199219 1.63726 0.199219 4.07473V9.92526C0.199219 12.362 1.76353 14 4.09122 14H10.3057C12.6342 14 14.1992 12.362 14.1992 9.92526V4.07473C14.1992 1.63726 12.6349 0 10.3065 0Z" fill="black"/>
</svg>
