<svg width="18" height="20" viewBox="0 0 18 20" fill="none" xmlns="http://www.w3.org/2000/svg">
<path d="M17.3969 17H13.8358V11.4782C13.8358 10.1614 13.8121 8.46639 11.9837 8.46639C10.129 8.46639 9.84522 9.90103 9.84522 11.3823V16.9996H6.28415V5.64451H9.70277V7.1963H9.75063C10.0928 6.6171 10.5871 6.14063 11.1811 5.81762C11.7751 5.49461 12.4464 5.33717 13.1236 5.36206C16.7329 5.36206 17.3984 7.71271 17.3984 10.7708L17.3969 17Z" fill="black"/>
<path d="M4.04663 17H0.481877V5.64451H4.04663V17Z" fill="black"/>
<path d="M2.26611 4.09234C1.85739 4.09241 1.45782 3.97248 1.11794 3.7477C0.778061 3.52293 0.513151 3.20341 0.356673 2.82954C0.200194 2.45568 0.159188 2.04428 0.238853 1.64734C0.318518 1.25041 0.515277 0.885784 0.804234 0.599571C1.09319 0.313357 1.46137 0.118412 1.86223 0.0393891C2.26308 -0.0396341 2.67858 0.000813362 3.05622 0.155616C3.43386 0.310419 3.75665 0.572623 3.98378 0.909074C4.21092 1.24552 4.33219 1.64111 4.33227 2.0458C4.33232 2.31451 4.2789 2.58059 4.1751 2.82887C4.07129 3.07714 3.91913 3.30273 3.72727 3.49277C3.53541 3.68281 3.3076 3.83357 3.0569 3.93644C2.8062 4.03932 2.53749 4.09229 2.26611 4.09234Z" fill="black"/>
</svg>
