<svg width="40" height="40" viewBox="0 0 40 40" fill="none" xmlns="http://www.w3.org/2000/svg">
<path d="M17.217 27.6562H6.71582" stroke="black" stroke-width="2.5" stroke-linecap="round" stroke-linejoin="round"/>
<path d="M21.9014 11.5H32.4026" stroke="black" stroke-width="2.5" stroke-linecap="round" stroke-linejoin="round"/>
<path fill-rule="evenodd" clip-rule="evenodd" d="M14.5441 11.4104C14.5441 9.251 12.7805 7.5 10.6056 7.5C8.43059 7.5 6.66699 9.251 6.66699 11.4104C6.66699 13.5698 8.43059 15.3208 10.6056 15.3208C12.7805 15.3208 14.5441 13.5698 14.5441 11.4104Z" stroke="black" stroke-width="2.5" stroke-linecap="round" stroke-linejoin="round"/>
<path fill-rule="evenodd" clip-rule="evenodd" d="M33.3332 27.5882C33.3332 25.4287 31.571 23.6777 29.396 23.6777C27.2197 23.6777 25.4561 25.4287 25.4561 27.5882C25.4561 29.7476 27.2197 31.4986 29.396 31.4986C31.571 31.4986 33.3332 29.7476 33.3332 27.5882Z" stroke="black" stroke-width="2.5" stroke-linecap="round" stroke-linejoin="round"/>
</svg>
