<svg width="24" height="24" viewBox="0 0 24 24" fill="none" xmlns="http://www.w3.org/2000/svg">
<path fill-rule="evenodd" clip-rule="evenodd" d="M7.802 10H5.198C3.984 10 3 9.016 3 7.802V5.198C3 3.984 3.984 3 5.198 3H7.802C9.016 3 10 3.984 10 5.198V7.802C10 9.016 9.016 10 7.802 10Z" stroke="black" stroke-width="1.5" stroke-linecap="round" stroke-linejoin="round"/>
<path fill-rule="evenodd" clip-rule="evenodd" d="M18.802 21H16.198C14.984 21 14 20.016 14 18.802V16.198C14 14.984 14.984 14 16.198 14H18.802C20.016 14 21 14.984 21 16.198V18.802C21 20.016 20.016 21 18.802 21Z" stroke="black" stroke-width="1.5" stroke-linecap="round" stroke-linejoin="round"/>
<path fill-rule="evenodd" clip-rule="evenodd" d="M7.802 21H5.198C3.984 21 3 20.016 3 18.802V16.198C3 14.984 3.984 14 5.198 14H7.802C9.016 14 10 14.984 10 16.198V18.802C10 20.016 9.016 21 7.802 21Z" stroke="black" stroke-width="1.5" stroke-linecap="round" stroke-linejoin="round"/>
<path fill-rule="evenodd" clip-rule="evenodd" d="M14.9607 9.26405H20.2427C20.6607 9.26405 20.9997 8.92605 20.9997 8.50805C20.9997 8.37505 20.9657 8.24505 20.8997 8.13005L18.2607 3.51705C18.0527 3.15505 17.5907 3.02905 17.2277 3.23705C17.1107 3.30405 17.0137 3.40005 16.9467 3.51705L14.3037 8.13005C14.0957 8.49305 14.2207 8.95505 14.5837 9.16405C14.6977 9.22905 14.8287 9.26405 14.9607 9.26405Z" stroke="black" stroke-width="1.5" stroke-linecap="round" stroke-linejoin="round"/>
</svg>
