<svg width="32" height="32" viewBox="0 0 32 32" fill="none" xmlns="http://www.w3.org/2000/svg">
<g filter="url(#filter0_i_2093_38575)">
<path d="M24.5869 0H7.41312C3.31897 0 0 3.31897 0 7.41312V24.5869C0 28.681 3.31897 32 7.41312 32H24.5869C28.681 32 32 28.681 32 24.5869V7.41312C32 3.31897 28.681 0 24.5869 0Z" fill="url(#paint0_linear_2093_38575)"/>
</g>
<path fill-rule="evenodd" clip-rule="evenodd" d="M24.5728 10.1723L24.5714 10.1795L21.2384 12.8674C23.8869 13.7736 25.7911 16.2844 25.7911 19.2399C25.7911 21.403 24.7713 23.3277 23.1861 24.5598L23.1929 24.5711C21.2192 26.1437 18.7191 27.0835 15.9994 27.0835C13.6719 27.0835 11.5051 26.3951 9.69162 25.211C9.92766 25.2335 10.1669 25.245 10.4088 25.245C13.4727 25.245 16.1042 23.3943 17.2461 20.7495C15.9066 22.7173 13.6483 24.0096 11.0883 24.0096C9.58745 24.0096 8.19029 23.5654 7.0212 22.8013C5.41163 20.816 4.44727 18.2863 4.44727 15.5313C4.44727 13.8491 4.80683 12.251 5.45329 10.8094C6.23438 14.0846 9.18 16.5201 12.6945 16.5201C15.1499 16.5201 17.3275 15.3313 18.6834 13.4979C17.007 12.8709 15.8134 11.2546 15.8134 9.35938C15.8134 6.91993 17.791 4.94238 20.2304 4.94238C21.9521 4.94238 23.4437 5.92744 24.1724 7.3647L27.4279 7.84699L24.5728 10.1723ZM22.053 7.84733C22.053 8.63205 21.4169 9.26817 20.6322 9.26817C19.8475 9.26817 19.2114 8.63205 19.2114 7.84733C19.2114 7.06263 19.8475 6.42649 20.6322 6.42649C21.4169 6.42649 22.053 7.06263 22.053 7.84733Z" fill="url(#paint1_linear_2093_38575)"/>
<defs>
<filter id="filter0_i_2093_38575" x="0" y="0" width="32" height="32.1441" filterUnits="userSpaceOnUse" color-interpolation-filters="sRGB">
<feFlood flood-opacity="0" result="BackgroundImageFix"/>
<feBlend mode="normal" in="SourceGraphic" in2="BackgroundImageFix" result="shape"/>
<feColorMatrix in="SourceAlpha" type="matrix" values="0 0 0 0 0 0 0 0 0 0 0 0 0 0 0 0 0 0 127 0" result="hardAlpha"/>
<feOffset dy="0.720721"/>
<feGaussianBlur stdDeviation="0.0720721"/>
<feComposite in2="hardAlpha" operator="arithmetic" k2="-1" k3="1"/>
<feColorMatrix type="matrix" values="0 0 0 0 0.431373 0 0 0 0 0.431373 0 0 0 0 0.431373 0 0 0 1 0"/>
<feBlend mode="normal" in2="shape" result="effect1_innerShadow_2093_38575"/>
</filter>
<linearGradient id="paint0_linear_2093_38575" x1="16" y1="0" x2="16" y2="32" gradientUnits="userSpaceOnUse">
<stop stop-color="#3A3A3A"/>
<stop offset="1" stop-color="#020202"/>
</linearGradient>
<linearGradient id="paint1_linear_2093_38575" x1="15.9376" y1="4.94238" x2="15.9376" y2="27.0835" gradientUnits="userSpaceOnUse">
<stop stop-color="#FEFEFE"/>
<stop offset="1" stop-color="#DEDEDE"/>
</linearGradient>
</defs>
</svg>
