<svg width="123" height="32" viewBox="0 0 123 32" fill="none" xmlns="http://www.w3.org/2000/svg">
<path d="M42.7246 25.2803C41.6204 25.2803 40.614 25.0552 39.7052 24.6051C38.8049 24.1549 38.1339 23.5476 37.6922 22.7832H37.1317L37.8196 22.1717V25H35.3098V6.75618H37.9343V13.6486L37.8069 13.7505C38.2231 13.037 38.8686 12.468 39.7434 12.0433C40.6182 11.6102 41.5822 11.3936 42.6354 11.3936C44.453 11.3936 45.9988 12.0433 47.2728 13.3428C48.5553 14.6338 49.1965 16.2985 49.1965 18.3369C49.1965 20.3329 48.568 21.9891 47.311 23.3056C46.054 24.622 44.5252 25.2803 42.7246 25.2803ZM42.1513 22.9106C43.4083 22.9106 44.4487 22.4944 45.2726 21.6621C46.1049 20.8297 46.5211 19.7214 46.5211 18.3369C46.5211 16.9525 46.1092 15.8441 45.2853 15.0118C44.4615 14.1794 43.4168 13.7632 42.1513 13.7632C40.9112 13.7632 39.8835 14.1879 39.0682 15.0372C38.2528 15.8866 37.8366 16.9865 37.8196 18.3369C37.8111 19.6364 38.2103 20.7236 39.0172 21.5984C39.8326 22.4732 40.8773 22.9106 42.1513 22.9106ZM51.2587 25V22.8214L57.2847 16.5278C58.4313 15.3303 59.2042 14.413 59.6034 13.776C60.0026 13.139 60.2022 12.4637 60.2022 11.7503C60.2022 10.901 59.9347 10.2257 59.3996 9.72462C58.8645 9.21502 58.1086 8.96021 57.1318 8.96021C56.5713 8.96021 56.0829 9.03666 55.6667 9.18954C55.259 9.34242 54.8938 9.58448 54.5711 9.91572C54.2568 10.247 53.968 10.6334 53.7047 11.0751C53.4415 11.5167 53.3098 11.7376 53.3098 11.7376L51.1949 10.5909C51.1949 10.5909 51.3436 10.3107 51.6409 9.7501C51.9466 9.18954 52.3628 8.65021 52.8894 8.13211C53.4245 7.60552 54.0487 7.19783 54.7622 6.90906C55.4841 6.62028 56.3292 6.47589 57.2975 6.47589C59.0131 6.47589 60.3721 6.94728 61.3743 7.89005C62.3765 8.83281 62.8776 10.0431 62.8776 11.521C62.8776 12.5402 62.6186 13.4872 62.1005 14.362C61.5909 15.2283 60.6863 16.3282 59.3868 17.6617L54.6475 22.5666V22.5794H63.349V25H51.2587ZM73.7278 25.2803C72.6237 25.2803 71.6172 25.0552 70.7084 24.6051C69.8081 24.1549 69.1371 23.5476 68.6955 22.7832H68.1349L68.8229 22.1717V25H66.3131V6.75618H68.9375V13.6486L68.8101 13.7505C69.2263 13.037 69.8718 12.468 70.7466 12.0433C71.6214 11.6102 72.5854 11.3936 73.6386 11.3936C75.4562 11.3936 77.002 12.0433 78.276 13.3428C79.5585 14.6338 80.1998 16.2985 80.1998 18.3369C80.1998 20.3329 79.5713 21.9891 78.3142 23.3056C77.0572 24.622 75.5284 25.2803 73.7278 25.2803ZM73.1545 22.9106C74.4115 22.9106 75.452 22.4944 76.2758 21.6621C77.1082 20.8297 77.5244 19.7214 77.5244 18.3369C77.5244 16.9525 77.1124 15.8441 76.2886 15.0118C75.4647 14.1794 74.42 13.7632 73.1545 13.7632C71.9145 13.7632 70.8868 14.1879 70.0714 15.0372C69.256 15.8866 68.8399 16.9865 68.8229 18.3369C68.8144 19.6364 69.2136 20.7236 70.0204 21.5984C70.8358 22.4732 71.8805 22.9106 73.1545 22.9106ZM87.0394 25.2803C85.5786 25.2803 84.3767 24.8896 83.434 24.1082C82.4912 23.3183 82.0198 22.2864 82.0198 21.0123C82.0198 19.6704 82.5337 18.6002 83.5614 17.8018C84.5976 17.0035 85.9523 16.6043 87.6255 16.6043C88.2795 16.6043 88.9419 16.6765 89.6129 16.8209C90.2924 16.9568 90.8827 17.1521 91.3838 17.4069V16.5915C91.3838 15.6488 91.0568 14.9141 90.4028 14.3875C89.7488 13.8609 88.9632 13.5976 88.0459 13.5976C87.5448 13.5976 87.0989 13.6613 86.7082 13.7887C86.326 13.9161 85.9777 14.086 85.6635 14.2983C85.3577 14.5107 85.052 14.7655 84.7462 15.0627C84.4489 15.36 84.3003 15.5086 84.3003 15.5086L82.4912 14.0563C82.4912 14.0563 82.6866 13.8609 83.0772 13.4702C83.4679 13.071 83.9138 12.7101 84.415 12.3873C84.9246 12.0646 85.4894 11.8182 86.1094 11.6484C86.7294 11.4785 87.4768 11.3936 88.3516 11.3936C90.0333 11.3936 91.388 11.848 92.4157 12.7568C93.4519 13.6656 93.97 14.9013 93.97 16.4641V25H91.4475V22.2099L92.0845 22.9106H91.4348C90.9676 23.6835 90.3476 24.2738 89.5747 24.6815C88.8103 25.0807 87.9652 25.2803 87.0394 25.2803ZM87.549 23.1272C88.7126 23.1272 89.6426 22.7195 90.3391 21.9042C91.0356 21.0888 91.3838 20.2649 91.3838 19.4326V19.3052C90.9931 19.0504 90.492 18.8465 89.8805 18.6937C89.2774 18.5323 88.6362 18.4516 87.9567 18.4516C86.929 18.4516 86.1179 18.6597 85.5233 19.0759C84.9373 19.4835 84.6443 20.0781 84.6443 20.8595C84.6443 21.5729 84.9076 22.1292 85.4342 22.5284C85.9693 22.9276 86.6742 23.1272 87.549 23.1272ZM101.753 25.2803C100.819 25.2803 100.02 25.1699 99.3577 24.949C98.6952 24.7197 98.1219 24.397 97.6378 23.9808C97.1622 23.5561 96.7884 23.1017 96.5167 22.6176C96.2449 22.1335 96.109 21.8914 96.109 21.8914L98.1219 20.8467C98.1219 20.8467 98.2323 21.0293 98.4532 21.3946C98.6825 21.7513 98.9415 22.0655 99.2303 22.3373C99.5276 22.6091 99.88 22.8214 100.288 22.9743C100.704 23.1187 101.209 23.1909 101.804 23.1909C102.551 23.1909 103.167 23.0338 103.651 22.7195C104.135 22.4053 104.377 21.9763 104.377 21.4328C104.377 20.8552 104.169 20.4263 103.753 20.146C103.345 19.8657 102.551 19.5812 101.371 19.2924C99.5955 18.8593 98.364 18.3242 97.676 17.6872C96.9965 17.0417 96.6568 16.2178 96.6568 15.2156C96.6568 14.0605 97.1282 13.1347 98.071 12.4383C99.0222 11.7418 100.237 11.3936 101.715 11.3936C102.445 11.3936 103.078 11.4785 103.613 11.6484C104.156 11.8098 104.641 12.0603 105.065 12.4C105.49 12.7313 105.847 13.1092 106.135 13.5339C106.433 13.9501 106.581 14.1582 106.581 14.1582L104.696 15.3175C104.696 15.3175 104.594 15.1774 104.39 14.8971C104.195 14.6083 103.961 14.3578 103.689 14.1454C103.418 13.9246 103.112 13.7632 102.772 13.6613C102.441 13.5509 102.059 13.4957 101.625 13.4957C100.87 13.4957 100.275 13.6486 99.8418 13.9543C99.4087 14.2601 99.1921 14.6338 99.1921 15.0755C99.1921 15.619 99.4256 16.0267 99.8928 16.2985C100.36 16.5703 101.188 16.8506 102.377 17.1394C104.025 17.5301 105.197 18.0269 105.893 18.63C106.59 19.233 106.938 20.112 106.938 21.2672C106.938 22.5242 106.458 23.5094 105.498 24.2229C104.539 24.9278 103.29 25.2803 101.753 25.2803ZM115.574 25.2803C113.621 25.2803 111.977 24.6263 110.644 23.3183C109.31 22.0103 108.644 20.3499 108.644 18.3369C108.644 16.3325 109.306 14.6763 110.631 13.3683C111.965 12.0518 113.583 11.3936 115.485 11.3936C117.439 11.3936 119.014 11.9966 120.212 13.2027C121.418 14.4087 122.021 15.9333 122.021 17.7764V18.9612H109.994V17.1266H119.485C119.443 16.1329 119.057 15.309 118.326 14.655C117.604 13.9926 116.661 13.6613 115.498 13.6613C114.292 13.6613 113.26 14.103 112.402 14.9863C111.553 15.8696 111.128 16.9907 111.128 18.3497C111.128 19.7511 111.578 20.8849 112.478 21.7513C113.387 22.6176 114.44 23.0508 115.638 23.0508C116.258 23.0508 116.802 22.9658 117.269 22.796C117.736 22.6176 118.156 22.3628 118.53 22.0316C118.912 21.6918 119.303 21.1992 119.702 20.5537L121.728 21.5474C121.244 22.4732 120.713 23.1952 120.135 23.7132C119.566 24.2229 118.916 24.6136 118.186 24.8853C117.456 25.1486 116.585 25.2803 115.574 25.2803Z" fill="#061B31"/>
<path fill-rule="evenodd" clip-rule="evenodd" d="M13.2889 29.3327C20.6282 29.3327 26.5778 23.3631 26.5778 15.9993C26.5778 8.63555 20.6282 2.66602 13.2889 2.66602C5.94963 2.66602 0 8.63555 0 15.9993C0 23.3631 5.94963 29.3327 13.2889 29.3327ZM17.4346 8.87724C17.6364 8.15805 16.9408 7.73277 16.3055 8.18688L7.4372 14.5257C6.74824 15.0182 6.85661 15.9993 7.59999 15.9993H9.93525V15.9812H14.4866L10.7781 17.2941L9.14323 23.1215C8.94144 23.8407 9.63698 24.2659 10.2723 23.8118L19.1406 17.473C19.8296 16.9805 19.7211 15.9993 18.9778 15.9993H15.4365L17.4346 8.87724Z" fill="#216351"/>
</svg>
