<svg width="139" height="26" viewBox="0 0 139 26" fill="none" xmlns="http://www.w3.org/2000/svg">
<path d="M34.5844 20V5.8H37.1844V19.2L35.7644 17.74H43.9244V20H34.5844ZM50.0986 20.24C49.0453 20.24 48.1186 20.0133 47.3186 19.56C46.5319 19.0933 45.9186 18.44 45.4786 17.6C45.0519 16.76 44.8386 15.78 44.8386 14.66C44.8386 13.5267 45.0519 12.5467 45.4786 11.72C45.9186 10.88 46.5319 10.2333 47.3186 9.78C48.1186 9.31333 49.0453 9.08 50.0986 9.08C51.1519 9.08 52.0719 9.31333 52.8586 9.78C53.6453 10.2333 54.2519 10.88 54.6786 11.72C55.1186 12.5467 55.3386 13.5267 55.3386 14.66C55.3386 15.78 55.1186 16.76 54.6786 17.6C54.2519 18.44 53.6453 19.0933 52.8586 19.56C52.0719 20.0133 51.1519 20.24 50.0986 20.24ZM50.0986 18.16C50.9253 18.16 51.5586 17.8533 51.9986 17.24C52.4519 16.6267 52.6786 15.7667 52.6786 14.66C52.6786 13.5667 52.4519 12.7133 51.9986 12.1C51.5586 11.4733 50.9253 11.16 50.0986 11.16C49.2719 11.16 48.6319 11.4733 48.1786 12.1C47.7253 12.7133 47.4986 13.5667 47.4986 14.66C47.4986 15.7667 47.7253 16.6267 48.1786 17.24C48.6319 17.8533 49.2719 18.16 50.0986 18.16ZM61.8741 23.24C60.9407 23.24 60.1407 23.1133 59.4741 22.86C58.8074 22.6067 58.2674 22.2467 57.8541 21.78C57.4541 21.3267 57.1741 20.8 57.0141 20.2L59.6541 20.02C59.7874 20.42 60.0141 20.7333 60.3341 20.96C60.6674 21.1867 61.1807 21.3 61.8741 21.3C62.6607 21.3 63.2674 21.12 63.6941 20.76C64.1207 20.4133 64.3341 19.8667 64.3341 19.12V17.76C64.0807 18.28 63.6741 18.7 63.1141 19.02C62.5541 19.3267 61.9274 19.48 61.2341 19.48C60.3541 19.48 59.5674 19.2667 58.8741 18.84C58.1941 18.4 57.6607 17.7933 57.2741 17.02C56.8874 16.2333 56.6941 15.3267 56.6941 14.3C56.6941 13.2733 56.8807 12.3733 57.2541 11.6C57.6407 10.8133 58.1741 10.2 58.8541 9.76C59.5341 9.30667 60.3141 9.08 61.1941 9.08C61.9674 9.08 62.6341 9.25333 63.1941 9.6C63.7541 9.94667 64.1607 10.4067 64.4141 10.98V9.32H66.9141V19.06C66.9141 19.9667 66.7007 20.7333 66.2741 21.36C65.8607 21.9867 65.2741 22.4533 64.5141 22.76C63.7674 23.08 62.8874 23.24 61.8741 23.24ZM61.8341 17.48C62.5941 17.48 63.2007 17.2 63.6541 16.64C64.1074 16.0667 64.3407 15.28 64.3541 14.28C64.3674 13.6133 64.2674 13.0467 64.0541 12.58C63.8541 12.1 63.5607 11.7333 63.1741 11.48C62.8007 11.2133 62.3541 11.08 61.8341 11.08C61.0474 11.08 60.4341 11.3733 59.9941 11.96C59.5674 12.5333 59.3541 13.3067 59.3541 14.28C59.3541 15.2533 59.5741 16.0333 60.0141 16.62C60.4674 17.1933 61.0741 17.48 61.8341 17.48ZM74.1611 20.24C73.1078 20.24 72.1811 20.0133 71.3811 19.56C70.5944 19.0933 69.9811 18.44 69.5411 17.6C69.1144 16.76 68.9011 15.78 68.9011 14.66C68.9011 13.5267 69.1144 12.5467 69.5411 11.72C69.9811 10.88 70.5944 10.2333 71.3811 9.78C72.1811 9.31333 73.1078 9.08 74.1611 9.08C75.2144 9.08 76.1344 9.31333 76.9211 9.78C77.7078 10.2333 78.3144 10.88 78.7411 11.72C79.1811 12.5467 79.4011 13.5267 79.4011 14.66C79.4011 15.78 79.1811 16.76 78.7411 17.6C78.3144 18.44 77.7078 19.0933 76.9211 19.56C76.1344 20.0133 75.2144 20.24 74.1611 20.24ZM74.1611 18.16C74.9878 18.16 75.6211 17.8533 76.0611 17.24C76.5144 16.6267 76.7411 15.7667 76.7411 14.66C76.7411 13.5667 76.5144 12.7133 76.0611 12.1C75.6211 11.4733 74.9878 11.16 74.1611 11.16C73.3344 11.16 72.6944 11.4733 72.2411 12.1C71.7878 12.7133 71.5611 13.5667 71.5611 14.66C71.5611 15.7667 71.7878 16.6267 72.2411 17.24C72.6944 17.8533 73.3344 18.16 74.1611 18.16ZM81.3766 20V9.32H83.9366V20H81.3766ZM81.3366 7.9V5.62H83.9966V7.9H81.3366ZM86.9039 23V9.32H89.3639L89.4239 11.6L89.1639 11.48C89.4306 10.6933 89.8639 10.1 90.4639 9.7C91.0772 9.28667 91.7906 9.08 92.6039 9.08C93.6172 9.08 94.4572 9.33333 95.1239 9.84C95.8039 10.3467 96.3106 11.02 96.6439 11.86C96.9772 12.7 97.1439 13.6333 97.1439 14.66C97.1439 15.6867 96.9706 16.62 96.6239 17.46C96.2906 18.3 95.7839 18.9733 95.1039 19.48C94.4372 19.9867 93.5972 20.24 92.5839 20.24C92.0506 20.24 91.5506 20.1467 91.0839 19.96C90.6306 19.7733 90.2372 19.5067 89.9039 19.16C89.5839 18.8133 89.3572 18.4067 89.2239 17.94L89.4639 17.74V23H86.9039ZM91.9839 18.16C92.7572 18.16 93.3639 17.8533 93.8039 17.24C94.2572 16.6133 94.4839 15.7533 94.4839 14.66C94.4839 13.5667 94.2572 12.7133 93.8039 12.1C93.3639 11.4733 92.7572 11.16 91.9839 11.16C91.4639 11.16 91.0172 11.2933 90.6439 11.56C90.2706 11.8133 89.9772 12.2 89.7639 12.72C89.5639 13.24 89.4639 13.8867 89.4639 14.66C89.4639 15.4333 89.5639 16.08 89.7639 16.6C89.9639 17.12 90.2506 17.5133 90.6239 17.78C91.0106 18.0333 91.4639 18.16 91.9839 18.16ZM103.47 20.24C102.417 20.24 101.53 20.0867 100.81 19.78C100.104 19.4733 99.5571 19.0467 99.1705 18.5C98.7838 17.9533 98.5638 17.3333 98.5105 16.64L101.13 16.52C101.224 17.08 101.457 17.5133 101.83 17.82C102.204 18.1267 102.757 18.28 103.49 18.28C104.09 18.28 104.557 18.1867 104.89 18C105.237 17.8 105.41 17.4933 105.41 17.08C105.41 16.84 105.35 16.64 105.23 16.48C105.11 16.32 104.884 16.18 104.55 16.06C104.217 15.94 103.724 15.82 103.07 15.7C101.977 15.5133 101.117 15.2867 100.49 15.02C99.8638 14.74 99.4171 14.3933 99.1505 13.98C98.8971 13.5667 98.7705 13.0533 98.7705 12.44C98.7705 11.44 99.1505 10.6333 99.9105 10.02C100.684 9.39333 101.81 9.08 103.29 9.08C104.25 9.08 105.057 9.24 105.71 9.56C106.364 9.86667 106.87 10.2933 107.23 10.84C107.604 11.3733 107.837 11.9867 107.93 12.68L105.35 12.8C105.284 12.44 105.164 12.1267 104.99 11.86C104.817 11.5933 104.584 11.3933 104.29 11.26C103.997 11.1133 103.65 11.04 103.25 11.04C102.65 11.04 102.197 11.16 101.89 11.4C101.584 11.64 101.43 11.96 101.43 12.36C101.43 12.64 101.497 12.8733 101.63 13.06C101.777 13.2467 102.01 13.4 102.33 13.52C102.65 13.6267 103.077 13.7267 103.61 13.82C104.73 13.9933 105.61 14.22 106.25 14.5C106.904 14.7667 107.364 15.1133 107.63 15.54C107.91 15.9533 108.05 16.4533 108.05 17.04C108.05 17.72 107.857 18.3 107.47 18.78C107.097 19.26 106.564 19.6267 105.87 19.88C105.19 20.12 104.39 20.24 103.47 20.24ZM113.568 20.24C112.488 20.24 111.628 19.8867 110.988 19.18C110.362 18.46 110.048 17.4667 110.048 16.2V9.32H112.608V15.56C112.608 16.4533 112.755 17.1133 113.048 17.54C113.355 17.9533 113.815 18.16 114.428 18.16C115.122 18.16 115.655 17.9333 116.028 17.48C116.415 17.0133 116.608 16.34 116.608 15.46V9.32H119.168V20H116.828L116.768 17.06L117.088 17.16C116.928 18.1733 116.548 18.94 115.948 19.46C115.348 19.98 114.555 20.24 113.568 20.24ZM121.982 20V9.32H124.302L124.382 11.94L124.142 11.82C124.262 11.2467 124.469 10.76 124.762 10.36C125.069 9.94667 125.435 9.63333 125.862 9.42C126.302 9.19333 126.782 9.08 127.302 9.08C128.209 9.08 128.942 9.34 129.502 9.86C130.062 10.3667 130.415 11.0667 130.562 11.96H130.222C130.342 11.3333 130.549 10.8133 130.842 10.4C131.135 9.97333 131.502 9.64667 131.942 9.42C132.395 9.19333 132.902 9.08 133.462 9.08C134.195 9.08 134.829 9.24 135.362 9.56C135.895 9.86667 136.302 10.32 136.582 10.92C136.875 11.52 137.022 12.26 137.022 13.14V20H134.462V13.8C134.462 12.92 134.309 12.26 134.002 11.82C133.709 11.38 133.255 11.16 132.642 11.16C132.229 11.16 131.875 11.2667 131.582 11.48C131.289 11.6933 131.062 12.0067 130.902 12.42C130.755 12.82 130.682 13.3067 130.682 13.88V20H128.302V13.88C128.302 13 128.169 12.3267 127.902 11.86C127.635 11.3933 127.175 11.16 126.522 11.16C126.109 11.16 125.755 11.2667 125.462 11.48C125.182 11.6933 124.955 12.0067 124.782 12.42C124.622 12.82 124.542 13.3067 124.542 13.88V20H121.982Z" fill="#061B31"/>
<path d="M7.86241 12.0929C9.95608 14.1874 12.9208 15.5872 15.9274 15.2073C15.9324 15.2064 15.9377 15.2072 15.9423 15.2095C15.9469 15.2118 15.9506 15.2156 15.9529 15.2202C15.9552 15.2248 15.956 15.23 15.9551 15.2351C15.9542 15.2402 15.9517 15.2448 15.9479 15.2484L11.2806 19.9114C11.2642 19.9277 11.2444 19.9401 11.2226 19.9475C11.2008 19.9549 11.1776 19.9572 11.1548 19.9542C8.29878 19.5931 5.70201 18.3243 3.66652 16.2879C1.63018 14.2524 0.362162 11.6548 0.00109572 8.7988C-0.00167269 8.77609 0.000821853 8.75302 0.00838593 8.73136C0.01595 8.70971 0.0283834 8.69005 0.0447325 8.67389L4.70864 4.00655C4.71224 4.00315 4.7168 4.00095 4.7217 4.00024C4.7266 3.99954 4.7316 4.00037 4.73601 4.00262C4.74042 4.00487 4.74402 4.00843 4.74632 4.01281C4.74862 4.01719 4.7495 4.02218 4.74886 4.02709C4.36897 7.03369 5.76874 9.99836 7.86241 12.0929Z" fill="#061B31"/>
<path d="M20.8376 10.3365C22.8714 12.3712 24.1386 14.9679 24.4988 17.8222C24.5016 17.8449 24.4993 17.8679 24.4919 17.8896C24.4845 17.9112 24.4722 17.9309 24.456 17.9471L19.7938 22.6102C19.7902 22.6135 19.7858 22.6157 19.781 22.6164C19.7762 22.6171 19.7713 22.6164 19.7669 22.6142C19.7625 22.6121 19.7589 22.6087 19.7566 22.6044C19.7542 22.6002 19.7531 22.5954 19.7536 22.5905C20.1335 19.5848 18.7354 16.6218 16.6434 14.5281C14.5506 12.4345 11.5885 11.0347 8.58277 11.4137C8.57794 11.4142 8.57308 11.4131 8.56885 11.4108C8.56462 11.4084 8.56122 11.4048 8.55908 11.4004C8.55695 11.396 8.55619 11.3911 8.5569 11.3863C8.55762 11.3815 8.55978 11.3771 8.5631 11.3735L13.2287 6.71389C13.245 6.6977 13.2647 6.68542 13.2863 6.67801C13.308 6.67059 13.331 6.66823 13.3536 6.67111C16.2079 7.03218 18.8038 8.30104 20.8376 10.3365Z" fill="#061B31"/>
</svg>
