<svg width="139" height="26" viewBox="0 0 139 26" fill="none" xmlns="http://www.w3.org/2000/svg">
<path d="M7.17766 1.00397C7.19561 0.99644 7.20979 0.999624 7.22021 1.01352C7.55834 1.48424 7.90197 1.92601 8.25111 2.33883C9.23423 3.49826 10.722 4.16613 12.2496 4.16613C13.7773 4.16613 15.2659 3.49826 16.2481 2.33883C16.5978 1.92601 16.9415 1.48424 17.279 1.01352C17.2894 0.999624 17.3039 0.99644 17.3224 1.00397C17.341 1.01207 17.3488 1.02452 17.3459 1.04131C17.2521 1.61335 17.1829 2.16861 17.1383 2.70707C17.0133 4.22171 17.5925 5.74677 18.6729 6.82716C19.7533 7.90756 21.2784 8.48684 22.793 8.36178C23.3315 8.3172 23.8867 8.24801 24.4588 8.15421C24.4756 8.15132 24.488 8.15914 24.4961 8.17766C24.5037 8.19619 24.5002 8.21037 24.4857 8.22022C24.0156 8.55835 23.5741 8.90227 23.1613 9.25198C22.0018 10.2342 21.334 11.7228 21.334 13.2505C21.334 14.7782 22.0018 16.2659 23.1613 17.249C23.5741 17.5981 24.0156 17.9418 24.4857 18.2799C24.5002 18.2897 24.5037 18.3039 24.4961 18.3224C24.488 18.341 24.4756 18.3488 24.4588 18.3459C23.8867 18.2521 23.3315 18.1829 22.793 18.1383C21.2784 18.0133 19.7533 18.5934 18.6729 19.6738C17.5925 20.7542 17.0133 22.2784 17.1383 23.793C17.1829 24.3321 17.2521 24.8873 17.3459 25.4588C17.3488 25.4762 17.341 25.4886 17.3224 25.4961C17.3039 25.5037 17.2894 25.5005 17.279 25.4866C16.9415 25.0159 16.5978 24.5744 16.2481 24.1621C15.2659 23.0027 13.7773 22.334 12.2496 22.334C10.722 22.334 9.23423 23.0027 8.25111 24.1621C7.90197 24.5744 7.55834 25.0159 7.22021 25.4866C7.20979 25.5005 7.19561 25.5037 7.17766 25.4961C7.15913 25.4886 7.15131 25.4762 7.15421 25.4588C7.24742 24.8873 7.31662 24.3321 7.36178 23.793C7.48684 22.2784 6.9067 20.7542 5.8263 19.6738C4.7459 18.5934 3.22171 18.0133 1.70707 18.1383C1.16803 18.1829 0.61278 18.2521 0.0413168 18.3459C0.0239471 18.3488 0.0114941 18.341 0.00396723 18.3224C-0.00355965 18.3039 -0.000376473 18.2897 0.0135193 18.2799C0.484239 17.9418 0.925719 17.5981 1.33796 17.249C2.49739 16.2659 3.16613 14.7782 3.16613 13.2505C3.16613 11.7228 2.49739 10.2342 1.33796 9.25198C0.925719 8.90227 0.484239 8.55835 0.0135193 8.22022C-0.000376473 8.21037 -0.00355965 8.19619 0.00396723 8.17766C0.0114941 8.15914 0.0239471 8.15132 0.0413168 8.15421C0.61278 8.24801 1.16803 8.3172 1.70707 8.36178C3.22171 8.48684 4.7459 7.90756 5.8263 6.82716C6.9067 5.74677 7.48684 4.22171 7.36178 2.70707C7.31719 2.16803 7.248 1.61278 7.15421 1.04131C7.15131 1.02452 7.15913 1.01207 7.17766 1.00397ZM18.7164 13.2496C18.7164 11.5345 18.035 9.88969 16.8223 8.67694C15.6095 7.46419 13.9647 6.78287 12.2496 6.78287C10.5345 6.78287 8.88969 7.46419 7.67694 8.67694C6.46419 9.88969 5.78288 11.5345 5.78288 13.2496C5.78288 14.0988 5.95014 14.9397 6.27512 15.7243C6.6001 16.5089 7.07645 17.2218 7.67694 17.8223C8.27744 18.4228 8.99032 18.8991 9.7749 19.2241C10.5595 19.5491 11.4004 19.7164 12.2496 19.7164C13.0988 19.7164 13.9398 19.5491 14.7243 19.2241C15.5089 18.8991 16.2218 18.4228 16.8223 17.8223C17.4228 17.2218 17.8991 16.5089 18.2241 15.7243C18.5491 14.9397 18.7164 14.0988 18.7164 13.2496Z" fill="#061B31"/>
<path d="M34.5688 20V5.8H37.1688V19.2L35.7488 17.74H43.9088V20H34.5688ZM50.083 20.24C49.0296 20.24 48.103 20.0133 47.303 19.56C46.5163 19.0933 45.903 18.44 45.463 17.6C45.0363 16.76 44.823 15.78 44.823 14.66C44.823 13.5267 45.0363 12.5467 45.463 11.72C45.903 10.88 46.5163 10.2333 47.303 9.78C48.103 9.31333 49.0296 9.08 50.083 9.08C51.1363 9.08 52.0563 9.31333 52.843 9.78C53.6296 10.2333 54.2363 10.88 54.663 11.72C55.103 12.5467 55.323 13.5267 55.323 14.66C55.323 15.78 55.103 16.76 54.663 17.6C54.2363 18.44 53.6296 19.0933 52.843 19.56C52.0563 20.0133 51.1363 20.24 50.083 20.24ZM50.083 18.16C50.9096 18.16 51.543 17.8533 51.983 17.24C52.4363 16.6267 52.663 15.7667 52.663 14.66C52.663 13.5667 52.4363 12.7133 51.983 12.1C51.543 11.4733 50.9096 11.16 50.083 11.16C49.2563 11.16 48.6163 11.4733 48.163 12.1C47.7096 12.7133 47.483 13.5667 47.483 14.66C47.483 15.7667 47.7096 16.6267 48.163 17.24C48.6163 17.8533 49.2563 18.16 50.083 18.16ZM61.8584 23.24C60.9251 23.24 60.1251 23.1133 59.4584 22.86C58.7918 22.6067 58.2518 22.2467 57.8384 21.78C57.4384 21.3267 57.1584 20.8 56.9984 20.2L59.6384 20.02C59.7718 20.42 59.9984 20.7333 60.3184 20.96C60.6518 21.1867 61.1651 21.3 61.8584 21.3C62.6451 21.3 63.2518 21.12 63.6784 20.76C64.1051 20.4133 64.3184 19.8667 64.3184 19.12V17.76C64.0651 18.28 63.6584 18.7 63.0984 19.02C62.5384 19.3267 61.9118 19.48 61.2184 19.48C60.3384 19.48 59.5518 19.2667 58.8584 18.84C58.1784 18.4 57.6451 17.7933 57.2584 17.02C56.8718 16.2333 56.6784 15.3267 56.6784 14.3C56.6784 13.2733 56.8651 12.3733 57.2384 11.6C57.6251 10.8133 58.1584 10.2 58.8384 9.76C59.5184 9.30667 60.2984 9.08 61.1784 9.08C61.9518 9.08 62.6184 9.25333 63.1784 9.6C63.7384 9.94667 64.1451 10.4067 64.3984 10.98V9.32H66.8984V19.06C66.8984 19.9667 66.6851 20.7333 66.2584 21.36C65.8451 21.9867 65.2584 22.4533 64.4984 22.76C63.7518 23.08 62.8718 23.24 61.8584 23.24ZM61.8184 17.48C62.5784 17.48 63.1851 17.2 63.6384 16.64C64.0918 16.0667 64.3251 15.28 64.3384 14.28C64.3518 13.6133 64.2518 13.0467 64.0384 12.58C63.8384 12.1 63.5451 11.7333 63.1584 11.48C62.7851 11.2133 62.3384 11.08 61.8184 11.08C61.0318 11.08 60.4184 11.3733 59.9784 11.96C59.5518 12.5333 59.3384 13.3067 59.3384 14.28C59.3384 15.2533 59.5584 16.0333 59.9984 16.62C60.4518 17.1933 61.0584 17.48 61.8184 17.48ZM74.1455 20.24C73.0921 20.24 72.1655 20.0133 71.3655 19.56C70.5788 19.0933 69.9655 18.44 69.5255 17.6C69.0988 16.76 68.8855 15.78 68.8855 14.66C68.8855 13.5267 69.0988 12.5467 69.5255 11.72C69.9655 10.88 70.5788 10.2333 71.3655 9.78C72.1655 9.31333 73.0921 9.08 74.1455 9.08C75.1988 9.08 76.1188 9.31333 76.9055 9.78C77.6921 10.2333 78.2988 10.88 78.7255 11.72C79.1655 12.5467 79.3855 13.5267 79.3855 14.66C79.3855 15.78 79.1655 16.76 78.7255 17.6C78.2988 18.44 77.6921 19.0933 76.9055 19.56C76.1188 20.0133 75.1988 20.24 74.1455 20.24ZM74.1455 18.16C74.9721 18.16 75.6055 17.8533 76.0455 17.24C76.4988 16.6267 76.7255 15.7667 76.7255 14.66C76.7255 13.5667 76.4988 12.7133 76.0455 12.1C75.6055 11.4733 74.9721 11.16 74.1455 11.16C73.3188 11.16 72.6788 11.4733 72.2255 12.1C71.7721 12.7133 71.5455 13.5667 71.5455 14.66C71.5455 15.7667 71.7721 16.6267 72.2255 17.24C72.6788 17.8533 73.3188 18.16 74.1455 18.16ZM81.3609 20V9.32H83.9209V20H81.3609ZM81.3209 7.9V5.62H83.9809V7.9H81.3209ZM86.8883 23V9.32H89.3483L89.4083 11.6L89.1483 11.48C89.4149 10.6933 89.8483 10.1 90.4483 9.7C91.0616 9.28667 91.7749 9.08 92.5883 9.08C93.6016 9.08 94.4416 9.33333 95.1083 9.84C95.7883 10.3467 96.2949 11.02 96.6283 11.86C96.9616 12.7 97.1283 13.6333 97.1283 14.66C97.1283 15.6867 96.9549 16.62 96.6083 17.46C96.2749 18.3 95.7683 18.9733 95.0883 19.48C94.4216 19.9867 93.5816 20.24 92.5683 20.24C92.0349 20.24 91.5349 20.1467 91.0683 19.96C90.6149 19.7733 90.2216 19.5067 89.8883 19.16C89.5683 18.8133 89.3416 18.4067 89.2083 17.94L89.4483 17.74V23H86.8883ZM91.9683 18.16C92.7416 18.16 93.3483 17.8533 93.7883 17.24C94.2416 16.6133 94.4683 15.7533 94.4683 14.66C94.4683 13.5667 94.2416 12.7133 93.7883 12.1C93.3483 11.4733 92.7416 11.16 91.9683 11.16C91.4483 11.16 91.0016 11.2933 90.6283 11.56C90.2549 11.8133 89.9616 12.2 89.7483 12.72C89.5483 13.24 89.4483 13.8867 89.4483 14.66C89.4483 15.4333 89.5483 16.08 89.7483 16.6C89.9483 17.12 90.2349 17.5133 90.6083 17.78C90.9949 18.0333 91.4483 18.16 91.9683 18.16ZM103.455 20.24C102.402 20.24 101.515 20.0867 100.795 19.78C100.088 19.4733 99.5415 19.0467 99.1548 18.5C98.7682 17.9533 98.5482 17.3333 98.4948 16.64L101.115 16.52C101.208 17.08 101.442 17.5133 101.815 17.82C102.188 18.1267 102.742 18.28 103.475 18.28C104.075 18.28 104.542 18.1867 104.875 18C105.222 17.8 105.395 17.4933 105.395 17.08C105.395 16.84 105.335 16.64 105.215 16.48C105.095 16.32 104.868 16.18 104.535 16.06C104.202 15.94 103.708 15.82 103.055 15.7C101.962 15.5133 101.102 15.2867 100.475 15.02C99.8482 14.74 99.4015 14.3933 99.1348 13.98C98.8815 13.5667 98.7548 13.0533 98.7548 12.44C98.7548 11.44 99.1348 10.6333 99.8948 10.02C100.668 9.39333 101.795 9.08 103.275 9.08C104.235 9.08 105.042 9.24 105.695 9.56C106.348 9.86667 106.855 10.2933 107.215 10.84C107.588 11.3733 107.822 11.9867 107.915 12.68L105.335 12.8C105.268 12.44 105.148 12.1267 104.975 11.86C104.802 11.5933 104.568 11.3933 104.275 11.26C103.982 11.1133 103.635 11.04 103.235 11.04C102.635 11.04 102.182 11.16 101.875 11.4C101.568 11.64 101.415 11.96 101.415 12.36C101.415 12.64 101.482 12.8733 101.615 13.06C101.762 13.2467 101.995 13.4 102.315 13.52C102.635 13.6267 103.062 13.7267 103.595 13.82C104.715 13.9933 105.595 14.22 106.235 14.5C106.888 14.7667 107.348 15.1133 107.615 15.54C107.895 15.9533 108.035 16.4533 108.035 17.04C108.035 17.72 107.842 18.3 107.455 18.78C107.082 19.26 106.548 19.6267 105.855 19.88C105.175 20.12 104.375 20.24 103.455 20.24ZM113.553 20.24C112.473 20.24 111.613 19.8867 110.973 19.18C110.346 18.46 110.033 17.4667 110.033 16.2V9.32H112.593V15.56C112.593 16.4533 112.739 17.1133 113.033 17.54C113.339 17.9533 113.799 18.16 114.413 18.16C115.106 18.16 115.639 17.9333 116.013 17.48C116.399 17.0133 116.593 16.34 116.593 15.46V9.32H119.153V20H116.813L116.753 17.06L117.073 17.16C116.913 18.1733 116.533 18.94 115.933 19.46C115.333 19.98 114.539 20.24 113.553 20.24ZM121.966 20V9.32H124.286L124.366 11.94L124.126 11.82C124.246 11.2467 124.453 10.76 124.746 10.36C125.053 9.94667 125.42 9.63333 125.846 9.42C126.286 9.19333 126.766 9.08 127.286 9.08C128.193 9.08 128.926 9.34 129.486 9.86C130.046 10.3667 130.4 11.0667 130.546 11.96H130.206C130.326 11.3333 130.533 10.8133 130.826 10.4C131.12 9.97333 131.486 9.64667 131.926 9.42C132.38 9.19333 132.886 9.08 133.446 9.08C134.18 9.08 134.813 9.24 135.346 9.56C135.88 9.86667 136.286 10.32 136.566 10.92C136.86 11.52 137.006 12.26 137.006 13.14V20H134.446V13.8C134.446 12.92 134.293 12.26 133.986 11.82C133.693 11.38 133.24 11.16 132.626 11.16C132.213 11.16 131.86 11.2667 131.566 11.48C131.273 11.6933 131.046 12.0067 130.886 12.42C130.74 12.82 130.666 13.3067 130.666 13.88V20H128.286V13.88C128.286 13 128.153 12.3267 127.886 11.86C127.62 11.3933 127.16 11.16 126.506 11.16C126.093 11.16 125.74 11.2667 125.446 11.48C125.166 11.6933 124.94 12.0067 124.766 12.42C124.606 12.82 124.526 13.3067 124.526 13.88V20H121.966Z" fill="#061B31"/>
</svg>
