<svg width="139" height="26" viewBox="0 0 139 26" fill="none" xmlns="http://www.w3.org/2000/svg">
<path d="M24.5 12.875C24.5 16.1239 23.2094 19.2397 20.9121 21.5371C18.6147 23.8344 15.4989 25.125 12.25 25.125C9.00109 25.125 5.88526 23.8344 3.58794 21.5371C1.29062 19.2397 0 16.1239 0 12.875C0 11.2663 0.316855 9.67337 0.932475 8.18713C1.5481 6.70089 2.45043 5.35046 3.58794 4.21294C5.88526 1.91562 9.00109 0.625 12.25 0.625C13.8587 0.625 15.4516 0.941856 16.9379 1.55748C18.4241 2.1731 19.7745 3.07543 20.9121 4.21294C22.0496 5.35046 22.9519 6.70089 23.5675 8.18713C24.1831 9.67337 24.5 11.2663 24.5 12.875ZM4.41808 6.75608C4.41808 6.77478 4.43803 6.80875 4.47792 6.858C6.3957 9.21898 9.2083 10.6028 12.25 10.6028C15.2908 10.6028 18.1034 9.21898 20.0202 6.858C20.0607 6.80875 20.081 6.77478 20.081 6.75608C20.081 6.73862 20.0607 6.70527 20.0202 6.65603C18.1034 4.29504 15.2898 2.91118 12.2491 2.91118C9.20831 2.91212 6.3957 4.29504 4.47792 6.65696C4.43803 6.70621 4.41808 6.73925 4.41808 6.75608ZM11.4131 12.8787C11.4131 12.875 11.4106 12.8728 11.4057 12.8722C8.14922 12.6042 5.41421 11.2814 3.20065 8.90387C3.19544 8.89836 3.18896 8.89419 3.18179 8.89175C3.17462 8.8893 3.16698 8.88865 3.15956 8.88986C3.15214 8.89106 3.14518 8.89408 3.13929 8.89865C3.13341 8.90322 3.12879 8.90919 3.12585 8.91603C2.57604 10.1821 2.30114 11.502 2.30114 12.8759C2.30114 14.2498 2.57636 15.5698 3.12678 16.8358C3.12978 16.8425 3.13438 16.8483 3.14019 16.8527C3.146 16.8572 3.15284 16.8601 3.16011 16.8613C3.16739 16.8625 3.17488 16.8619 3.18195 16.8596C3.18901 16.8573 3.19543 16.8533 3.20065 16.848C5.41421 14.4705 8.14922 13.1474 11.4057 12.8787C11.4106 12.8781 11.4131 12.8781 11.4131 12.8787ZM13.0448 12.8741C13.0448 12.8778 13.0476 12.88 13.0532 12.8806C16.329 13.1493 19.0805 14.4792 21.3078 16.8704C21.313 16.8759 21.3196 16.88 21.3268 16.8824C21.334 16.8848 21.3417 16.8854 21.3491 16.8841C21.3566 16.8828 21.3635 16.8797 21.3693 16.875C21.3752 16.8703 21.3797 16.8643 21.3826 16.8573C21.9355 15.5838 22.2116 14.2561 22.211 12.8741C22.2104 11.4921 21.9333 10.1643 21.3798 8.89078C21.3768 8.88394 21.3722 8.87797 21.3663 8.87341C21.3604 8.86884 21.3535 8.86582 21.3461 8.86461C21.3386 8.8634 21.331 8.86405 21.3238 8.8665C21.3167 8.86895 21.3102 8.87311 21.305 8.87863C19.0796 11.2711 16.329 12.6029 13.0532 12.8741C13.0476 12.8747 13.0448 12.8747 13.0448 12.8741ZM20.081 18.993C20.081 18.9743 20.061 18.9403 20.0212 18.8911C18.1034 16.531 15.2908 15.1481 12.2509 15.149C9.21111 15.149 6.3985 16.5329 4.48166 18.8939C4.44177 18.9431 4.42182 18.9771 4.42182 18.9958C4.42182 19.0126 4.44177 19.0457 4.48166 19.0949C6.39944 21.4559 9.21204 22.8388 12.2519 22.8379C15.2926 22.8379 18.1043 21.454 20.0212 19.093C20.061 19.0438 20.081 19.0104 20.081 18.993Z" fill="#061B31"/>
<path d="M34.5355 20V5.8H37.1355V19.2L35.7155 17.74H43.8755V20H34.5355ZM50.0498 20.24C48.9964 20.24 48.0698 20.0133 47.2698 19.56C46.4831 19.0933 45.8698 18.44 45.4298 17.6C45.0031 16.76 44.7898 15.78 44.7898 14.66C44.7898 13.5267 45.0031 12.5467 45.4298 11.72C45.8698 10.88 46.4831 10.2333 47.2698 9.78C48.0698 9.31333 48.9964 9.08 50.0498 9.08C51.1031 9.08 52.0231 9.31333 52.8098 9.78C53.5964 10.2333 54.2031 10.88 54.6298 11.72C55.0698 12.5467 55.2898 13.5267 55.2898 14.66C55.2898 15.78 55.0698 16.76 54.6298 17.6C54.2031 18.44 53.5964 19.0933 52.8098 19.56C52.0231 20.0133 51.1031 20.24 50.0498 20.24ZM50.0498 18.16C50.8764 18.16 51.5098 17.8533 51.9498 17.24C52.4031 16.6267 52.6298 15.7667 52.6298 14.66C52.6298 13.5667 52.4031 12.7133 51.9498 12.1C51.5098 11.4733 50.8764 11.16 50.0498 11.16C49.2231 11.16 48.5831 11.4733 48.1298 12.1C47.6764 12.7133 47.4498 13.5667 47.4498 14.66C47.4498 15.7667 47.6764 16.6267 48.1298 17.24C48.5831 17.8533 49.2231 18.16 50.0498 18.16ZM61.8252 23.24C60.8919 23.24 60.0919 23.1133 59.4252 22.86C58.7586 22.6067 58.2186 22.2467 57.8052 21.78C57.4052 21.3267 57.1252 20.8 56.9652 20.2L59.6052 20.02C59.7386 20.42 59.9652 20.7333 60.2852 20.96C60.6186 21.1867 61.1319 21.3 61.8252 21.3C62.6119 21.3 63.2186 21.12 63.6452 20.76C64.0719 20.4133 64.2852 19.8667 64.2852 19.12V17.76C64.0319 18.28 63.6252 18.7 63.0652 19.02C62.5052 19.3267 61.8786 19.48 61.1852 19.48C60.3052 19.48 59.5186 19.2667 58.8252 18.84C58.1452 18.4 57.6119 17.7933 57.2252 17.02C56.8386 16.2333 56.6452 15.3267 56.6452 14.3C56.6452 13.2733 56.8319 12.3733 57.2052 11.6C57.5919 10.8133 58.1252 10.2 58.8052 9.76C59.4852 9.30667 60.2652 9.08 61.1452 9.08C61.9186 9.08 62.5852 9.25333 63.1452 9.6C63.7052 9.94667 64.1119 10.4067 64.3652 10.98V9.32H66.8652V19.06C66.8652 19.9667 66.6519 20.7333 66.2252 21.36C65.8119 21.9867 65.2252 22.4533 64.4652 22.76C63.7186 23.08 62.8386 23.24 61.8252 23.24ZM61.7852 17.48C62.5452 17.48 63.1519 17.2 63.6052 16.64C64.0586 16.0667 64.2919 15.28 64.3052 14.28C64.3186 13.6133 64.2186 13.0467 64.0052 12.58C63.8052 12.1 63.5119 11.7333 63.1252 11.48C62.7519 11.2133 62.3052 11.08 61.7852 11.08C60.9986 11.08 60.3852 11.3733 59.9452 11.96C59.5186 12.5333 59.3052 13.3067 59.3052 14.28C59.3052 15.2533 59.5252 16.0333 59.9652 16.62C60.4186 17.1933 61.0252 17.48 61.7852 17.48ZM74.1123 20.24C73.0589 20.24 72.1323 20.0133 71.3323 19.56C70.5456 19.0933 69.9323 18.44 69.4923 17.6C69.0656 16.76 68.8523 15.78 68.8523 14.66C68.8523 13.5267 69.0656 12.5467 69.4923 11.72C69.9323 10.88 70.5456 10.2333 71.3323 9.78C72.1323 9.31333 73.0589 9.08 74.1123 9.08C75.1656 9.08 76.0856 9.31333 76.8723 9.78C77.6589 10.2333 78.2656 10.88 78.6923 11.72C79.1323 12.5467 79.3523 13.5267 79.3523 14.66C79.3523 15.78 79.1323 16.76 78.6923 17.6C78.2656 18.44 77.6589 19.0933 76.8723 19.56C76.0856 20.0133 75.1656 20.24 74.1123 20.24ZM74.1123 18.16C74.9389 18.16 75.5723 17.8533 76.0123 17.24C76.4656 16.6267 76.6923 15.7667 76.6923 14.66C76.6923 13.5667 76.4656 12.7133 76.0123 12.1C75.5723 11.4733 74.9389 11.16 74.1123 11.16C73.2856 11.16 72.6456 11.4733 72.1923 12.1C71.7389 12.7133 71.5123 13.5667 71.5123 14.66C71.5123 15.7667 71.7389 16.6267 72.1923 17.24C72.6456 17.8533 73.2856 18.16 74.1123 18.16ZM81.3277 20V9.32H83.8877V20H81.3277ZM81.2877 7.9V5.62H83.9477V7.9H81.2877ZM86.8551 23V9.32H89.3151L89.3751 11.6L89.1151 11.48C89.3817 10.6933 89.8151 10.1 90.4151 9.7C91.0284 9.28667 91.7417 9.08 92.5551 9.08C93.5684 9.08 94.4084 9.33333 95.0751 9.84C95.7551 10.3467 96.2617 11.02 96.5951 11.86C96.9284 12.7 97.0951 13.6333 97.0951 14.66C97.0951 15.6867 96.9217 16.62 96.5751 17.46C96.2417 18.3 95.7351 18.9733 95.0551 19.48C94.3884 19.9867 93.5484 20.24 92.5351 20.24C92.0017 20.24 91.5017 20.1467 91.0351 19.96C90.5817 19.7733 90.1884 19.5067 89.8551 19.16C89.5351 18.8133 89.3084 18.4067 89.1751 17.94L89.4151 17.74V23H86.8551ZM91.9351 18.16C92.7084 18.16 93.3151 17.8533 93.7551 17.24C94.2084 16.6133 94.4351 15.7533 94.4351 14.66C94.4351 13.5667 94.2084 12.7133 93.7551 12.1C93.3151 11.4733 92.7084 11.16 91.9351 11.16C91.4151 11.16 90.9684 11.2933 90.5951 11.56C90.2217 11.8133 89.9284 12.2 89.7151 12.72C89.5151 13.24 89.4151 13.8867 89.4151 14.66C89.4151 15.4333 89.5151 16.08 89.7151 16.6C89.9151 17.12 90.2017 17.5133 90.5751 17.78C90.9617 18.0333 91.4151 18.16 91.9351 18.16ZM103.422 20.24C102.368 20.24 101.482 20.0867 100.762 19.78C100.055 19.4733 99.5083 19.0467 99.1216 18.5C98.735 17.9533 98.515 17.3333 98.4616 16.64L101.082 16.52C101.175 17.08 101.408 17.5133 101.782 17.82C102.155 18.1267 102.708 18.28 103.442 18.28C104.042 18.28 104.508 18.1867 104.842 18C105.188 17.8 105.362 17.4933 105.362 17.08C105.362 16.84 105.302 16.64 105.182 16.48C105.062 16.32 104.835 16.18 104.502 16.06C104.168 15.94 103.675 15.82 103.022 15.7C101.928 15.5133 101.068 15.2867 100.442 15.02C99.815 14.74 99.3683 14.3933 99.1016 13.98C98.8483 13.5667 98.7216 13.0533 98.7216 12.44C98.7216 11.44 99.1016 10.6333 99.8616 10.02C100.635 9.39333 101.762 9.08 103.242 9.08C104.202 9.08 105.008 9.24 105.662 9.56C106.315 9.86667 106.822 10.2933 107.182 10.84C107.555 11.3733 107.788 11.9867 107.882 12.68L105.302 12.8C105.235 12.44 105.115 12.1267 104.942 11.86C104.768 11.5933 104.535 11.3933 104.242 11.26C103.948 11.1133 103.602 11.04 103.202 11.04C102.602 11.04 102.148 11.16 101.842 11.4C101.535 11.64 101.382 11.96 101.382 12.36C101.382 12.64 101.448 12.8733 101.582 13.06C101.728 13.2467 101.962 13.4 102.282 13.52C102.602 13.6267 103.028 13.7267 103.562 13.82C104.682 13.9933 105.562 14.22 106.202 14.5C106.855 14.7667 107.315 15.1133 107.582 15.54C107.862 15.9533 108.002 16.4533 108.002 17.04C108.002 17.72 107.808 18.3 107.422 18.78C107.048 19.26 106.515 19.6267 105.822 19.88C105.142 20.12 104.342 20.24 103.422 20.24ZM113.52 20.24C112.44 20.24 111.58 19.8867 110.94 19.18C110.313 18.46 110 17.4667 110 16.2V9.32H112.56V15.56C112.56 16.4533 112.706 17.1133 113 17.54C113.306 17.9533 113.766 18.16 114.38 18.16C115.073 18.16 115.606 17.9333 115.98 17.48C116.366 17.0133 116.56 16.34 116.56 15.46V9.32H119.12V20H116.78L116.72 17.06L117.04 17.16C116.88 18.1733 116.5 18.94 115.9 19.46C115.3 19.98 114.506 20.24 113.52 20.24ZM121.933 20V9.32H124.253L124.333 11.94L124.093 11.82C124.213 11.2467 124.42 10.76 124.713 10.36C125.02 9.94667 125.387 9.63333 125.813 9.42C126.253 9.19333 126.733 9.08 127.253 9.08C128.16 9.08 128.893 9.34 129.453 9.86C130.013 10.3667 130.367 11.0667 130.513 11.96H130.173C130.293 11.3333 130.5 10.8133 130.793 10.4C131.087 9.97333 131.453 9.64667 131.893 9.42C132.347 9.19333 132.853 9.08 133.413 9.08C134.147 9.08 134.78 9.24 135.313 9.56C135.847 9.86667 136.253 10.32 136.533 10.92C136.827 11.52 136.973 12.26 136.973 13.14V20H134.413V13.8C134.413 12.92 134.26 12.26 133.953 11.82C133.66 11.38 133.207 11.16 132.593 11.16C132.18 11.16 131.827 11.2667 131.533 11.48C131.24 11.6933 131.013 12.0067 130.853 12.42C130.707 12.82 130.633 13.3067 130.633 13.88V20H128.253V13.88C128.253 13 128.12 12.3267 127.853 11.86C127.587 11.3933 127.127 11.16 126.473 11.16C126.06 11.16 125.707 11.2667 125.413 11.48C125.133 11.6933 124.907 12.0067 124.733 12.42C124.573 12.82 124.493 13.3067 124.493 13.88V20H121.933Z" fill="#061B31"/>
</svg>
