<svg width="88" height="14" viewBox="0 0 88 14" fill="none" xmlns="http://www.w3.org/2000/svg">
<path d="M7.36081 0L5.62197 5.34741H0L4.54877 8.65258L2.81209 14L7.36086 10.6948L11.9096 14L10.1729 8.65258L14.7217 5.34741H9.09975L7.36081 0Z" fill="#061B31"/>
<path d="M25.5835 0L23.8446 5.34741H18.2227L22.7714 8.65258L21.0347 14L25.5835 10.6948L30.1323 14L28.3956 8.65258L32.9444 5.34741H27.3224L25.5835 0Z" fill="#061B31"/>
<path d="M43.8042 0L42.0653 5.34741H36.4434L40.9921 8.65258L39.2554 14L43.8042 10.6948L48.353 14L46.6163 8.65258L51.1651 5.34741H45.5431L43.8042 0Z" fill="#061B31"/>
<path d="M62.0268 0L60.288 5.34741H54.666L59.2148 8.65258L57.4781 14L62.0269 10.6948L66.5756 14L64.839 8.65258L69.3877 5.34741H63.7658L62.0268 0Z" fill="#061B31"/>
<path d="M80.2475 0L78.5087 5.34741H72.8867L77.4355 8.65258L75.6988 14L80.2476 10.6948L84.7964 14L83.0597 8.65258L87.6084 5.34741H81.9865L80.2475 0Z" fill="#061B31"/>
</svg>
