<svg width="139" height="26" viewBox="0 0 139 26" fill="none" xmlns="http://www.w3.org/2000/svg">
<path d="M12.2353 1.25195C12.7938 1.25195 13.1028 1.25226 13.1621 1.25288C13.1779 1.25288 13.1931 1.2591 13.2043 1.2702C13.2156 1.28129 13.2221 1.29638 13.2223 1.3122C13.239 2.96841 14.2038 4.39847 15.7367 5.03334C17.2705 5.66913 18.9637 5.33919 20.1472 4.18067C20.1584 4.16963 20.1736 4.16345 20.1894 4.16345C20.2051 4.16345 20.2203 4.16963 20.2315 4.18067C20.2735 4.22269 20.4919 4.44111 20.8868 4.83593C21.2816 5.23075 21.5 5.44917 21.542 5.49118C21.553 5.50245 21.5592 5.51759 21.5592 5.53336C21.5592 5.54913 21.553 5.56427 21.542 5.57553C20.3835 6.75907 20.0536 8.45235 20.6884 9.98622C21.3242 11.5192 22.7542 12.484 24.4104 12.5016C24.426 12.5018 24.441 12.5081 24.452 12.5192C24.4631 12.5303 24.4694 12.5452 24.4697 12.5609C24.4703 12.6202 24.4706 12.9292 24.4706 13.4877C24.4706 14.0463 24.4703 14.3549 24.4697 14.4136C24.4697 14.4215 24.4681 14.4293 24.4651 14.4366C24.4621 14.444 24.4576 14.4506 24.452 14.4562C24.4464 14.4618 24.4398 14.4662 24.4325 14.4693C24.4252 14.4723 24.4173 14.4738 24.4094 14.4738C22.7542 14.4914 21.3242 15.4553 20.6884 16.9892C20.0536 18.5221 20.3826 20.2154 21.541 21.399C21.5521 21.4102 21.5583 21.4254 21.5583 21.4411C21.5583 21.4569 21.5521 21.472 21.541 21.4833C21.4997 21.5259 21.2816 21.7447 20.8868 22.1395C20.4919 22.5343 20.2732 22.7524 20.2306 22.7938C20.2193 22.8049 20.2042 22.811 20.1884 22.811C20.1727 22.811 20.1575 22.8049 20.1463 22.7938C18.9637 21.6353 17.2705 21.3063 15.7367 21.9411C14.2028 22.576 13.239 24.0061 13.2214 25.6623C13.2214 25.6783 13.215 25.6936 13.2037 25.7049C13.1924 25.7162 13.1771 25.7225 13.1612 25.7225C13.1025 25.7225 12.7938 25.7225 12.2353 25.7225C11.6768 25.7225 11.3678 25.7222 11.3085 25.7216C11.2927 25.7216 11.2775 25.7154 11.2662 25.7043C11.255 25.6932 11.2485 25.6781 11.2483 25.6623C11.2316 24.0061 10.2668 22.576 8.73394 21.9411C7.20013 21.3054 5.5069 21.6353 4.32341 22.7938C4.31215 22.8049 4.29701 22.811 4.28124 22.811C4.26547 22.811 4.25034 22.8049 4.23908 22.7938C4.19706 22.7518 3.97865 22.5334 3.58385 22.1386C3.18904 21.7437 2.97063 21.5253 2.92862 21.4833C2.91758 21.472 2.9114 21.4569 2.9114 21.4411C2.9114 21.4254 2.91758 21.4102 2.92862 21.399C4.08708 20.2154 4.41701 18.5221 3.78217 16.9883C3.1464 15.4553 1.71639 14.4905 0.0602427 14.4738C0.0444271 14.4736 0.0293401 14.4671 0.0182425 14.4559C0.0071449 14.4446 0.000925809 14.4294 0.000927681 14.4136C0.00030983 14.3543 0 14.0453 0 13.4868C0 12.9282 0.00030983 12.6196 0.000927681 12.5609C0.000927681 12.5449 0.00727332 12.5296 0.0185706 12.5183C0.0298679 12.507 0.0451936 12.5007 0.0611704 12.5007C1.71639 12.483 3.1464 11.5192 3.78217 9.98529C4.41701 8.45234 4.08801 6.75907 2.92954 5.57553C2.91851 5.56427 2.91232 5.54913 2.91232 5.53336C2.91232 5.51759 2.91851 5.50245 2.92954 5.49118C2.97094 5.44855 3.18904 5.22983 3.58385 4.83501C3.97865 4.44019 4.19737 4.22207 4.24 4.18067C4.25126 4.16963 4.2664 4.16345 4.28217 4.16345C4.29794 4.16345 4.31308 4.16963 4.32434 4.18067C5.50691 5.33919 7.20013 5.66821 8.73394 5.03334C10.2678 4.39847 11.2316 2.96841 11.2492 1.3122C11.2495 1.29638 11.2559 1.28129 11.2672 1.2702C11.2784 1.2591 11.2936 1.25288 11.3094 1.25288C11.3681 1.25226 11.6768 1.25195 12.2353 1.25195Z" fill="#061B31"/>
<path d="M34.3402 20V5.8H36.9402V19.2L35.5202 17.74H43.6802V20H34.3402ZM49.8545 20.24C48.8011 20.24 47.8745 20.0133 47.0745 19.56C46.2878 19.0933 45.6745 18.44 45.2345 17.6C44.8078 16.76 44.5945 15.78 44.5945 14.66C44.5945 13.5267 44.8078 12.5467 45.2345 11.72C45.6745 10.88 46.2878 10.2333 47.0745 9.78C47.8745 9.31333 48.8011 9.08 49.8545 9.08C50.9078 9.08 51.8278 9.31333 52.6145 9.78C53.4011 10.2333 54.0078 10.88 54.4345 11.72C54.8745 12.5467 55.0945 13.5267 55.0945 14.66C55.0945 15.78 54.8745 16.76 54.4345 17.6C54.0078 18.44 53.4011 19.0933 52.6145 19.56C51.8278 20.0133 50.9078 20.24 49.8545 20.24ZM49.8545 18.16C50.6811 18.16 51.3145 17.8533 51.7545 17.24C52.2078 16.6267 52.4345 15.7667 52.4345 14.66C52.4345 13.5667 52.2078 12.7133 51.7545 12.1C51.3145 11.4733 50.6811 11.16 49.8545 11.16C49.0278 11.16 48.3878 11.4733 47.9345 12.1C47.4811 12.7133 47.2545 13.5667 47.2545 14.66C47.2545 15.7667 47.4811 16.6267 47.9345 17.24C48.3878 17.8533 49.0278 18.16 49.8545 18.16ZM61.6299 23.24C60.6966 23.24 59.8966 23.1133 59.2299 22.86C58.5633 22.6067 58.0233 22.2467 57.6099 21.78C57.2099 21.3267 56.9299 20.8 56.7699 20.2L59.4099 20.02C59.5433 20.42 59.7699 20.7333 60.0899 20.96C60.4233 21.1867 60.9366 21.3 61.6299 21.3C62.4166 21.3 63.0233 21.12 63.4499 20.76C63.8766 20.4133 64.0899 19.8667 64.0899 19.12V17.76C63.8366 18.28 63.4299 18.7 62.8699 19.02C62.3099 19.3267 61.6833 19.48 60.9899 19.48C60.1099 19.48 59.3233 19.2667 58.6299 18.84C57.9499 18.4 57.4166 17.7933 57.0299 17.02C56.6433 16.2333 56.4499 15.3267 56.4499 14.3C56.4499 13.2733 56.6366 12.3733 57.0099 11.6C57.3966 10.8133 57.9299 10.2 58.6099 9.76C59.2899 9.30667 60.0699 9.08 60.9499 9.08C61.7233 9.08 62.3899 9.25333 62.9499 9.6C63.5099 9.94667 63.9166 10.4067 64.1699 10.98V9.32H66.6699V19.06C66.6699 19.9667 66.4566 20.7333 66.0299 21.36C65.6166 21.9867 65.0299 22.4533 64.2699 22.76C63.5233 23.08 62.6433 23.24 61.6299 23.24ZM61.5899 17.48C62.3499 17.48 62.9566 17.2 63.4099 16.64C63.8633 16.0667 64.0966 15.28 64.1099 14.28C64.1233 13.6133 64.0233 13.0467 63.8099 12.58C63.6099 12.1 63.3166 11.7333 62.9299 11.48C62.5566 11.2133 62.1099 11.08 61.5899 11.08C60.8033 11.08 60.1899 11.3733 59.7499 11.96C59.3233 12.5333 59.1099 13.3067 59.1099 14.28C59.1099 15.2533 59.3299 16.0333 59.7699 16.62C60.2233 17.1933 60.8299 17.48 61.5899 17.48ZM73.917 20.24C72.8636 20.24 71.937 20.0133 71.137 19.56C70.3503 19.0933 69.737 18.44 69.297 17.6C68.8703 16.76 68.657 15.78 68.657 14.66C68.657 13.5267 68.8703 12.5467 69.297 11.72C69.737 10.88 70.3503 10.2333 71.137 9.78C71.937 9.31333 72.8636 9.08 73.917 9.08C74.9703 9.08 75.8903 9.31333 76.677 9.78C77.4636 10.2333 78.0703 10.88 78.497 11.72C78.937 12.5467 79.157 13.5267 79.157 14.66C79.157 15.78 78.937 16.76 78.497 17.6C78.0703 18.44 77.4636 19.0933 76.677 19.56C75.8903 20.0133 74.9703 20.24 73.917 20.24ZM73.917 18.16C74.7436 18.16 75.377 17.8533 75.817 17.24C76.2703 16.6267 76.497 15.7667 76.497 14.66C76.497 13.5667 76.2703 12.7133 75.817 12.1C75.377 11.4733 74.7436 11.16 73.917 11.16C73.0903 11.16 72.4503 11.4733 71.997 12.1C71.5436 12.7133 71.317 13.5667 71.317 14.66C71.317 15.7667 71.5436 16.6267 71.997 17.24C72.4503 17.8533 73.0903 18.16 73.917 18.16ZM81.1324 20V9.32H83.6924V20H81.1324ZM81.0924 7.9V5.62H83.7524V7.9H81.0924ZM86.6598 23V9.32H89.1198L89.1798 11.6L88.9198 11.48C89.1864 10.6933 89.6198 10.1 90.2198 9.7C90.8331 9.28667 91.5464 9.08 92.3598 9.08C93.3731 9.08 94.2131 9.33333 94.8798 9.84C95.5598 10.3467 96.0664 11.02 96.3998 11.86C96.7331 12.7 96.8998 13.6333 96.8998 14.66C96.8998 15.6867 96.7264 16.62 96.3798 17.46C96.0464 18.3 95.5398 18.9733 94.8598 19.48C94.1931 19.9867 93.3531 20.24 92.3398 20.24C91.8064 20.24 91.3064 20.1467 90.8398 19.96C90.3864 19.7733 89.9931 19.5067 89.6598 19.16C89.3398 18.8133 89.1131 18.4067 88.9798 17.94L89.2198 17.74V23H86.6598ZM91.7398 18.16C92.5131 18.16 93.1198 17.8533 93.5598 17.24C94.0131 16.6133 94.2398 15.7533 94.2398 14.66C94.2398 13.5667 94.0131 12.7133 93.5598 12.1C93.1198 11.4733 92.5131 11.16 91.7398 11.16C91.2198 11.16 90.7731 11.2933 90.3998 11.56C90.0264 11.8133 89.7331 12.2 89.5198 12.72C89.3198 13.24 89.2198 13.8867 89.2198 14.66C89.2198 15.4333 89.3198 16.08 89.5198 16.6C89.7198 17.12 90.0064 17.5133 90.3798 17.78C90.7664 18.0333 91.2198 18.16 91.7398 18.16ZM103.226 20.24C102.173 20.24 101.286 20.0867 100.566 19.78C99.8597 19.4733 99.313 19.0467 98.9263 18.5C98.5397 17.9533 98.3197 17.3333 98.2663 16.64L100.886 16.52C100.98 17.08 101.213 17.5133 101.586 17.82C101.96 18.1267 102.513 18.28 103.246 18.28C103.846 18.28 104.313 18.1867 104.646 18C104.993 17.8 105.166 17.4933 105.166 17.08C105.166 16.84 105.106 16.64 104.986 16.48C104.866 16.32 104.64 16.18 104.306 16.06C103.973 15.94 103.48 15.82 102.826 15.7C101.733 15.5133 100.873 15.2867 100.246 15.02C99.6197 14.74 99.173 14.3933 98.9063 13.98C98.653 13.5667 98.5263 13.0533 98.5263 12.44C98.5263 11.44 98.9063 10.6333 99.6663 10.02C100.44 9.39333 101.566 9.08 103.046 9.08C104.006 9.08 104.813 9.24 105.466 9.56C106.12 9.86667 106.626 10.2933 106.986 10.84C107.36 11.3733 107.593 11.9867 107.686 12.68L105.106 12.8C105.04 12.44 104.92 12.1267 104.746 11.86C104.573 11.5933 104.34 11.3933 104.046 11.26C103.753 11.1133 103.406 11.04 103.006 11.04C102.406 11.04 101.953 11.16 101.646 11.4C101.34 11.64 101.186 11.96 101.186 12.36C101.186 12.64 101.253 12.8733 101.386 13.06C101.533 13.2467 101.766 13.4 102.086 13.52C102.406 13.6267 102.833 13.7267 103.366 13.82C104.486 13.9933 105.366 14.22 106.006 14.5C106.66 14.7667 107.12 15.1133 107.386 15.54C107.666 15.9533 107.806 16.4533 107.806 17.04C107.806 17.72 107.613 18.3 107.226 18.78C106.853 19.26 106.32 19.6267 105.626 19.88C104.946 20.12 104.146 20.24 103.226 20.24ZM113.324 20.24C112.244 20.24 111.384 19.8867 110.744 19.18C110.118 18.46 109.804 17.4667 109.804 16.2V9.32H112.364V15.56C112.364 16.4533 112.511 17.1133 112.804 17.54C113.111 17.9533 113.571 18.16 114.184 18.16C114.878 18.16 115.411 17.9333 115.784 17.48C116.171 17.0133 116.364 16.34 116.364 15.46V9.32H118.924V20H116.584L116.524 17.06L116.844 17.16C116.684 18.1733 116.304 18.94 115.704 19.46C115.104 19.98 114.311 20.24 113.324 20.24ZM121.738 20V9.32H124.058L124.138 11.94L123.898 11.82C124.018 11.2467 124.225 10.76 124.518 10.36C124.825 9.94667 125.191 9.63333 125.618 9.42C126.058 9.19333 126.538 9.08 127.058 9.08C127.965 9.08 128.698 9.34 129.258 9.86C129.818 10.3667 130.171 11.0667 130.318 11.96H129.978C130.098 11.3333 130.305 10.8133 130.598 10.4C130.891 9.97333 131.258 9.64667 131.698 9.42C132.151 9.19333 132.658 9.08 133.218 9.08C133.951 9.08 134.585 9.24 135.118 9.56C135.651 9.86667 136.058 10.32 136.338 10.92C136.631 11.52 136.778 12.26 136.778 13.14V20H134.218V13.8C134.218 12.92 134.065 12.26 133.758 11.82C133.465 11.38 133.011 11.16 132.398 11.16C131.985 11.16 131.631 11.2667 131.338 11.48C131.045 11.6933 130.818 12.0067 130.658 12.42C130.511 12.82 130.438 13.3067 130.438 13.88V20H128.058V13.88C128.058 13 127.925 12.3267 127.658 11.86C127.391 11.3933 126.931 11.16 126.278 11.16C125.865 11.16 125.511 11.2667 125.218 11.48C124.938 11.6933 124.711 12.0067 124.538 12.42C124.378 12.82 124.298 13.3067 124.298 13.88V20H121.738Z" fill="#061B31"/>
</svg>
