<svg width="139" height="26" viewBox="0 0 139 26" fill="none" xmlns="http://www.w3.org/2000/svg">
<path d="M16.3406 12.8669C16.3419 13.7347 16.3422 15.0656 16.3415 16.8597C16.3415 16.8696 16.3435 16.8794 16.3473 16.8885C16.3511 16.8976 16.3566 16.9059 16.3636 16.9129C16.3706 16.9199 16.3789 16.9255 16.388 16.9293C16.3972 16.933 16.407 16.935 16.4169 16.935C17.9301 16.9401 20.0127 16.9388 22.6648 16.9312C23.4922 16.9283 24.1919 17.4067 24.4274 18.2071C24.4757 18.3717 24.4999 18.6576 24.4999 19.0648C24.5005 20.0292 24.4989 21.4465 24.4951 23.3168C24.4932 24.3431 23.7096 25.1197 22.6876 25.1197C20.232 25.1197 18.8462 25.1213 18.5303 25.1245C18.0174 25.1302 17.6485 25.087 17.4235 24.9949C16.9736 24.8107 16.6447 24.4844 16.4369 24.0162C16.3371 23.792 16.2929 23.3733 16.3044 22.7603C16.3126 22.2952 16.3136 20.39 16.3072 17.0446C16.3072 17.0276 16.3005 17.0114 16.2885 16.9994C16.2765 16.9874 16.2603 16.9807 16.2434 16.9807L8.27094 16.955C8.26059 16.9549 8.25033 16.9568 8.24073 16.9607C8.23114 16.9647 8.22241 16.9705 8.21505 16.9778C8.20769 16.9852 8.20185 16.9939 8.19786 17.0036C8.19387 17.0133 8.19182 17.0236 8.19182 17.0341C8.188 20.5644 8.18864 22.4153 8.19372 22.5868C8.21469 23.3066 8.1683 23.7923 8.05454 24.0439C7.82893 24.5458 7.44284 24.8818 6.89629 25.0521C6.57979 25.1502 6.10696 25.1188 5.6713 25.1207C4.53942 25.1258 3.24516 25.1239 1.78852 25.115C0.907676 25.1102 0.164104 24.5003 0.0277826 23.6293C0.00935218 23.5124 0.000454866 23.2139 0.0010904 22.7336C0.00363252 21.2839 0.00331383 20.147 0.000136169 19.323C-0.00177042 18.8428 0.0258759 18.4454 0.231788 18.0575C0.482187 17.5874 0.849841 17.2561 1.33475 17.0636C1.57689 16.9677 1.96234 16.9235 2.4911 16.9312C3.03321 16.9394 4.89309 16.9401 8.07075 16.9331C8.09283 16.9331 8.11403 16.9244 8.12973 16.9088C8.14544 16.8933 8.15439 16.8722 8.15464 16.8502C8.15972 15.5389 8.16131 14.2166 8.1594 12.8831C8.15813 12.0153 8.15781 10.684 8.15845 8.88935C8.1582 8.86955 8.15015 8.85065 8.13606 8.83674C8.12196 8.82283 8.10295 8.81502 8.08314 8.81502C6.56994 8.80994 4.4873 8.81121 1.83523 8.81884C1.00777 8.8217 0.308052 8.34332 0.0725877 7.54286C0.0242873 7.37832 0.000136169 7.09244 0.000136169 6.68521C-0.000499362 5.72084 0.00108976 4.30351 0.00490294 2.43322C0.00680954 1.40691 0.79042 0.630271 1.81235 0.630271C4.26805 0.630271 5.65382 0.628678 5.96968 0.625501C6.48255 0.619784 6.85148 0.662988 7.07646 0.755105C7.52641 0.939339 7.8553 1.26556 8.06312 1.73376C8.1629 1.95802 8.20707 2.37668 8.19563 2.98973C8.18737 3.45476 8.18641 5.36 8.19277 8.70543C8.19277 8.72236 8.1995 8.7386 8.21148 8.75058C8.22345 8.76255 8.2397 8.76928 8.25664 8.76928L16.2291 8.79501C16.2394 8.79514 16.2497 8.79318 16.2593 8.78927C16.2689 8.78535 16.2776 8.77955 16.285 8.77219C16.2923 8.76483 16.2982 8.75607 16.3021 8.74641C16.3061 8.73675 16.3082 8.72638 16.3082 8.71591C16.312 5.18561 16.3114 3.33469 16.3063 3.16317C16.2853 2.44338 16.3317 1.95771 16.4455 1.70613C16.6711 1.20425 17.0572 0.868183 17.6037 0.697925C17.9202 0.599773 18.393 0.631223 18.8287 0.629317C19.9606 0.624234 21.2548 0.62614 22.7115 0.635034C23.5923 0.639799 24.3359 1.24967 24.4722 2.12066C24.4906 2.23755 24.4995 2.53614 24.4989 3.01642C24.4964 4.46615 24.4967 5.603 24.4999 6.42697C24.5018 6.90725 24.4741 7.30462 24.2682 7.69246C24.0178 8.16258 23.6502 8.49388 23.1652 8.68638C22.9231 8.78231 22.5377 8.82646 22.0089 8.81884C21.4668 8.81058 19.6069 8.80994 16.4293 8.81693C16.4072 8.81693 16.386 8.82563 16.3703 8.84115C16.3546 8.85667 16.3456 8.87776 16.3454 8.89983C16.3403 10.2111 16.3387 11.5334 16.3406 12.8669Z" fill="#061B31"/>
<path d="M34.4711 20V5.8H37.0711V19.2L35.6511 17.74H43.8111V20H34.4711ZM49.9853 20.24C48.932 20.24 48.0053 20.0133 47.2053 19.56C46.4186 19.0933 45.8053 18.44 45.3653 17.6C44.9386 16.76 44.7253 15.78 44.7253 14.66C44.7253 13.5267 44.9386 12.5467 45.3653 11.72C45.8053 10.88 46.4186 10.2333 47.2053 9.78C48.0053 9.31333 48.932 9.08 49.9853 9.08C51.0386 9.08 51.9586 9.31333 52.7453 9.78C53.532 10.2333 54.1386 10.88 54.5653 11.72C55.0053 12.5467 55.2253 13.5267 55.2253 14.66C55.2253 15.78 55.0053 16.76 54.5653 17.6C54.1386 18.44 53.532 19.0933 52.7453 19.56C51.9586 20.0133 51.0386 20.24 49.9853 20.24ZM49.9853 18.16C50.812 18.16 51.4453 17.8533 51.8853 17.24C52.3386 16.6267 52.5653 15.7667 52.5653 14.66C52.5653 13.5667 52.3386 12.7133 51.8853 12.1C51.4453 11.4733 50.812 11.16 49.9853 11.16C49.1586 11.16 48.5186 11.4733 48.0653 12.1C47.612 12.7133 47.3853 13.5667 47.3853 14.66C47.3853 15.7667 47.612 16.6267 48.0653 17.24C48.5186 17.8533 49.1586 18.16 49.9853 18.16ZM61.7608 23.24C60.8274 23.24 60.0274 23.1133 59.3608 22.86C58.6941 22.6067 58.1541 22.2467 57.7408 21.78C57.3408 21.3267 57.0608 20.8 56.9008 20.2L59.5408 20.02C59.6741 20.42 59.9008 20.7333 60.2208 20.96C60.5541 21.1867 61.0674 21.3 61.7608 21.3C62.5474 21.3 63.1541 21.12 63.5808 20.76C64.0074 20.4133 64.2208 19.8667 64.2208 19.12V17.76C63.9674 18.28 63.5608 18.7 63.0008 19.02C62.4408 19.3267 61.8141 19.48 61.1208 19.48C60.2408 19.48 59.4541 19.2667 58.7608 18.84C58.0808 18.4 57.5474 17.7933 57.1608 17.02C56.7741 16.2333 56.5808 15.3267 56.5808 14.3C56.5808 13.2733 56.7674 12.3733 57.1408 11.6C57.5274 10.8133 58.0608 10.2 58.7408 9.76C59.4208 9.30667 60.2008 9.08 61.0808 9.08C61.8541 9.08 62.5208 9.25333 63.0808 9.6C63.6408 9.94667 64.0474 10.4067 64.3008 10.98V9.32H66.8008V19.06C66.8008 19.9667 66.5874 20.7333 66.1608 21.36C65.7474 21.9867 65.1608 22.4533 64.4008 22.76C63.6541 23.08 62.7741 23.24 61.7608 23.24ZM61.7208 17.48C62.4808 17.48 63.0874 17.2 63.5408 16.64C63.9941 16.0667 64.2274 15.28 64.2408 14.28C64.2541 13.6133 64.1541 13.0467 63.9408 12.58C63.7408 12.1 63.4474 11.7333 63.0608 11.48C62.6874 11.2133 62.2408 11.08 61.7208 11.08C60.9341 11.08 60.3208 11.3733 59.8808 11.96C59.4541 12.5333 59.2408 13.3067 59.2408 14.28C59.2408 15.2533 59.4608 16.0333 59.9008 16.62C60.3541 17.1933 60.9608 17.48 61.7208 17.48ZM74.0478 20.24C72.9945 20.24 72.0678 20.0133 71.2678 19.56C70.4811 19.0933 69.8678 18.44 69.4278 17.6C69.0011 16.76 68.7878 15.78 68.7878 14.66C68.7878 13.5267 69.0011 12.5467 69.4278 11.72C69.8678 10.88 70.4811 10.2333 71.2678 9.78C72.0678 9.31333 72.9945 9.08 74.0478 9.08C75.1011 9.08 76.0211 9.31333 76.8078 9.78C77.5945 10.2333 78.2011 10.88 78.6278 11.72C79.0678 12.5467 79.2878 13.5267 79.2878 14.66C79.2878 15.78 79.0678 16.76 78.6278 17.6C78.2011 18.44 77.5945 19.0933 76.8078 19.56C76.0211 20.0133 75.1011 20.24 74.0478 20.24ZM74.0478 18.16C74.8745 18.16 75.5078 17.8533 75.9478 17.24C76.4011 16.6267 76.6278 15.7667 76.6278 14.66C76.6278 13.5667 76.4011 12.7133 75.9478 12.1C75.5078 11.4733 74.8745 11.16 74.0478 11.16C73.2211 11.16 72.5811 11.4733 72.1278 12.1C71.6745 12.7133 71.4478 13.5667 71.4478 14.66C71.4478 15.7667 71.6745 16.6267 72.1278 17.24C72.5811 17.8533 73.2211 18.16 74.0478 18.16ZM81.2633 20V9.32H83.8233V20H81.2633ZM81.2233 7.9V5.62H83.8833V7.9H81.2233ZM86.7906 23V9.32H89.2506L89.3106 11.6L89.0506 11.48C89.3173 10.6933 89.7506 10.1 90.3506 9.7C90.964 9.28667 91.6773 9.08 92.4906 9.08C93.504 9.08 94.344 9.33333 95.0106 9.84C95.6906 10.3467 96.1973 11.02 96.5306 11.86C96.864 12.7 97.0306 13.6333 97.0306 14.66C97.0306 15.6867 96.8573 16.62 96.5106 17.46C96.1773 18.3 95.6706 18.9733 94.9906 19.48C94.324 19.9867 93.484 20.24 92.4706 20.24C91.9373 20.24 91.4373 20.1467 90.9706 19.96C90.5173 19.7733 90.124 19.5067 89.7906 19.16C89.4706 18.8133 89.244 18.4067 89.1106 17.94L89.3506 17.74V23H86.7906ZM91.8706 18.16C92.644 18.16 93.2506 17.8533 93.6906 17.24C94.144 16.6133 94.3706 15.7533 94.3706 14.66C94.3706 13.5667 94.144 12.7133 93.6906 12.1C93.2506 11.4733 92.644 11.16 91.8706 11.16C91.3506 11.16 90.904 11.2933 90.5306 11.56C90.1573 11.8133 89.864 12.2 89.6506 12.72C89.4506 13.24 89.3506 13.8867 89.3506 14.66C89.3506 15.4333 89.4506 16.08 89.6506 16.6C89.8506 17.12 90.1373 17.5133 90.5106 17.78C90.8973 18.0333 91.3506 18.16 91.8706 18.16ZM103.357 20.24C102.304 20.24 101.417 20.0867 100.697 19.78C99.9905 19.4733 99.4439 19.0467 99.0572 18.5C98.6705 17.9533 98.4505 17.3333 98.3972 16.64L101.017 16.52C101.111 17.08 101.344 17.5133 101.717 17.82C102.091 18.1267 102.644 18.28 103.377 18.28C103.977 18.28 104.444 18.1867 104.777 18C105.124 17.8 105.297 17.4933 105.297 17.08C105.297 16.84 105.237 16.64 105.117 16.48C104.997 16.32 104.771 16.18 104.437 16.06C104.104 15.94 103.611 15.82 102.957 15.7C101.864 15.5133 101.004 15.2867 100.377 15.02C99.7505 14.74 99.3039 14.3933 99.0372 13.98C98.7839 13.5667 98.6572 13.0533 98.6572 12.44C98.6572 11.44 99.0372 10.6333 99.7972 10.02C100.571 9.39333 101.697 9.08 103.177 9.08C104.137 9.08 104.944 9.24 105.597 9.56C106.251 9.86667 106.757 10.2933 107.117 10.84C107.491 11.3733 107.724 11.9867 107.817 12.68L105.237 12.8C105.171 12.44 105.051 12.1267 104.877 11.86C104.704 11.5933 104.471 11.3933 104.177 11.26C103.884 11.1133 103.537 11.04 103.137 11.04C102.537 11.04 102.084 11.16 101.777 11.4C101.471 11.64 101.317 11.96 101.317 12.36C101.317 12.64 101.384 12.8733 101.517 13.06C101.664 13.2467 101.897 13.4 102.217 13.52C102.537 13.6267 102.964 13.7267 103.497 13.82C104.617 13.9933 105.497 14.22 106.137 14.5C106.791 14.7667 107.251 15.1133 107.517 15.54C107.797 15.9533 107.937 16.4533 107.937 17.04C107.937 17.72 107.744 18.3 107.357 18.78C106.984 19.26 106.451 19.6267 105.757 19.88C105.077 20.12 104.277 20.24 103.357 20.24ZM113.455 20.24C112.375 20.24 111.515 19.8867 110.875 19.18C110.248 18.46 109.935 17.4667 109.935 16.2V9.32H112.495V15.56C112.495 16.4533 112.642 17.1133 112.935 17.54C113.242 17.9533 113.702 18.16 114.315 18.16C115.008 18.16 115.542 17.9333 115.915 17.48C116.302 17.0133 116.495 16.34 116.495 15.46V9.32H119.055V20H116.715L116.655 17.06L116.975 17.16C116.815 18.1733 116.435 18.94 115.835 19.46C115.235 19.98 114.442 20.24 113.455 20.24ZM121.869 20V9.32H124.189L124.269 11.94L124.029 11.82C124.149 11.2467 124.355 10.76 124.649 10.36C124.955 9.94667 125.322 9.63333 125.749 9.42C126.189 9.19333 126.669 9.08 127.189 9.08C128.095 9.08 128.829 9.34 129.389 9.86C129.949 10.3667 130.302 11.0667 130.449 11.96H130.109C130.229 11.3333 130.435 10.8133 130.729 10.4C131.022 9.97333 131.389 9.64667 131.829 9.42C132.282 9.19333 132.789 9.08 133.349 9.08C134.082 9.08 134.715 9.24 135.249 9.56C135.782 9.86667 136.189 10.32 136.469 10.92C136.762 11.52 136.909 12.26 136.909 13.14V20H134.349V13.8C134.349 12.92 134.195 12.26 133.889 11.82C133.595 11.38 133.142 11.16 132.529 11.16C132.115 11.16 131.762 11.2667 131.469 11.48C131.175 11.6933 130.949 12.0067 130.789 12.42C130.642 12.82 130.569 13.3067 130.569 13.88V20H128.189V13.88C128.189 13 128.055 12.3267 127.789 11.86C127.522 11.3933 127.062 11.16 126.409 11.16C125.995 11.16 125.642 11.2667 125.349 11.48C125.069 11.6933 124.842 12.0067 124.669 12.42C124.509 12.82 124.429 13.3067 124.429 13.88V20H121.869Z" fill="#061B31"/>
</svg>
