<svg width="139" height="26" viewBox="0 0 139 26" fill="none" xmlns="http://www.w3.org/2000/svg">
<path d="M34.5922 20V5.8H37.1922V19.2L35.7722 17.74H43.9322V20H34.5922ZM50.1064 20.24C49.0531 20.24 48.1264 20.0133 47.3264 19.56C46.5397 19.0933 45.9264 18.44 45.4864 17.6C45.0597 16.76 44.8464 15.78 44.8464 14.66C44.8464 13.5267 45.0597 12.5467 45.4864 11.72C45.9264 10.88 46.5397 10.2333 47.3264 9.78C48.1264 9.31333 49.0531 9.08 50.1064 9.08C51.1597 9.08 52.0797 9.31333 52.8664 9.78C53.6531 10.2333 54.2597 10.88 54.6864 11.72C55.1264 12.5467 55.3464 13.5267 55.3464 14.66C55.3464 15.78 55.1264 16.76 54.6864 17.6C54.2597 18.44 53.6531 19.0933 52.8664 19.56C52.0797 20.0133 51.1597 20.24 50.1064 20.24ZM50.1064 18.16C50.9331 18.16 51.5664 17.8533 52.0064 17.24C52.4597 16.6267 52.6864 15.7667 52.6864 14.66C52.6864 13.5667 52.4597 12.7133 52.0064 12.1C51.5664 11.4733 50.9331 11.16 50.1064 11.16C49.2797 11.16 48.6397 11.4733 48.1864 12.1C47.7331 12.7133 47.5064 13.5667 47.5064 14.66C47.5064 15.7667 47.7331 16.6267 48.1864 17.24C48.6397 17.8533 49.2797 18.16 50.1064 18.16ZM61.8819 23.24C60.9485 23.24 60.1485 23.1133 59.4819 22.86C58.8152 22.6067 58.2752 22.2467 57.8619 21.78C57.4619 21.3267 57.1819 20.8 57.0219 20.2L59.6619 20.02C59.7952 20.42 60.0219 20.7333 60.3419 20.96C60.6752 21.1867 61.1885 21.3 61.8819 21.3C62.6685 21.3 63.2752 21.12 63.7019 20.76C64.1285 20.4133 64.3419 19.8667 64.3419 19.12V17.76C64.0885 18.28 63.6819 18.7 63.1219 19.02C62.5619 19.3267 61.9352 19.48 61.2419 19.48C60.3619 19.48 59.5752 19.2667 58.8819 18.84C58.2019 18.4 57.6685 17.7933 57.2819 17.02C56.8952 16.2333 56.7019 15.3267 56.7019 14.3C56.7019 13.2733 56.8885 12.3733 57.2619 11.6C57.6485 10.8133 58.1819 10.2 58.8619 9.76C59.5419 9.30667 60.3219 9.08 61.2019 9.08C61.9752 9.08 62.6419 9.25333 63.2019 9.6C63.7619 9.94667 64.1685 10.4067 64.4219 10.98V9.32H66.9219V19.06C66.9219 19.9667 66.7085 20.7333 66.2819 21.36C65.8685 21.9867 65.2819 22.4533 64.5219 22.76C63.7752 23.08 62.8952 23.24 61.8819 23.24ZM61.8419 17.48C62.6019 17.48 63.2085 17.2 63.6619 16.64C64.1152 16.0667 64.3485 15.28 64.3619 14.28C64.3752 13.6133 64.2752 13.0467 64.0619 12.58C63.8619 12.1 63.5685 11.7333 63.1819 11.48C62.8085 11.2133 62.3619 11.08 61.8419 11.08C61.0552 11.08 60.4419 11.3733 60.0019 11.96C59.5752 12.5333 59.3619 13.3067 59.3619 14.28C59.3619 15.2533 59.5819 16.0333 60.0219 16.62C60.4752 17.1933 61.0819 17.48 61.8419 17.48ZM74.1689 20.24C73.1156 20.24 72.1889 20.0133 71.3889 19.56C70.6022 19.0933 69.9889 18.44 69.5489 17.6C69.1222 16.76 68.9089 15.78 68.9089 14.66C68.9089 13.5267 69.1222 12.5467 69.5489 11.72C69.9889 10.88 70.6022 10.2333 71.3889 9.78C72.1889 9.31333 73.1156 9.08 74.1689 9.08C75.2222 9.08 76.1422 9.31333 76.9289 9.78C77.7156 10.2333 78.3222 10.88 78.7489 11.72C79.1889 12.5467 79.4089 13.5267 79.4089 14.66C79.4089 15.78 79.1889 16.76 78.7489 17.6C78.3222 18.44 77.7156 19.0933 76.9289 19.56C76.1422 20.0133 75.2222 20.24 74.1689 20.24ZM74.1689 18.16C74.9956 18.16 75.6289 17.8533 76.0689 17.24C76.5222 16.6267 76.7489 15.7667 76.7489 14.66C76.7489 13.5667 76.5222 12.7133 76.0689 12.1C75.6289 11.4733 74.9956 11.16 74.1689 11.16C73.3422 11.16 72.7022 11.4733 72.2489 12.1C71.7956 12.7133 71.5689 13.5667 71.5689 14.66C71.5689 15.7667 71.7956 16.6267 72.2489 17.24C72.7022 17.8533 73.3422 18.16 74.1689 18.16ZM81.3844 20V9.32H83.9444V20H81.3844ZM81.3444 7.9V5.62H84.0044V7.9H81.3444ZM86.9117 23V9.32H89.3717L89.4317 11.6L89.1717 11.48C89.4384 10.6933 89.8717 10.1 90.4717 9.7C91.0851 9.28667 91.7984 9.08 92.6117 9.08C93.6251 9.08 94.4651 9.33333 95.1317 9.84C95.8117 10.3467 96.3184 11.02 96.6517 11.86C96.9851 12.7 97.1517 13.6333 97.1517 14.66C97.1517 15.6867 96.9784 16.62 96.6317 17.46C96.2984 18.3 95.7917 18.9733 95.1117 19.48C94.4451 19.9867 93.6051 20.24 92.5917 20.24C92.0584 20.24 91.5584 20.1467 91.0917 19.96C90.6384 19.7733 90.2451 19.5067 89.9117 19.16C89.5917 18.8133 89.3651 18.4067 89.2317 17.94L89.4717 17.74V23H86.9117ZM91.9917 18.16C92.7651 18.16 93.3717 17.8533 93.8117 17.24C94.2651 16.6133 94.4917 15.7533 94.4917 14.66C94.4917 13.5667 94.2651 12.7133 93.8117 12.1C93.3717 11.4733 92.7651 11.16 91.9917 11.16C91.4717 11.16 91.0251 11.2933 90.6517 11.56C90.2784 11.8133 89.9851 12.2 89.7717 12.72C89.5717 13.24 89.4717 13.8867 89.4717 14.66C89.4717 15.4333 89.5717 16.08 89.7717 16.6C89.9717 17.12 90.2584 17.5133 90.6317 17.78C91.0184 18.0333 91.4717 18.16 91.9917 18.16ZM103.478 20.24C102.425 20.24 101.538 20.0867 100.818 19.78C100.112 19.4733 99.5649 19.0467 99.1783 18.5C98.7916 17.9533 98.5716 17.3333 98.5183 16.64L101.138 16.52C101.232 17.08 101.465 17.5133 101.838 17.82C102.212 18.1267 102.765 18.28 103.498 18.28C104.098 18.28 104.565 18.1867 104.898 18C105.245 17.8 105.418 17.4933 105.418 17.08C105.418 16.84 105.358 16.64 105.238 16.48C105.118 16.32 104.892 16.18 104.558 16.06C104.225 15.94 103.732 15.82 103.078 15.7C101.985 15.5133 101.125 15.2867 100.498 15.02C99.8716 14.74 99.4249 14.3933 99.1583 13.98C98.9049 13.5667 98.7783 13.0533 98.7783 12.44C98.7783 11.44 99.1583 10.6333 99.9183 10.02C100.692 9.39333 101.818 9.08 103.298 9.08C104.258 9.08 105.065 9.24 105.718 9.56C106.372 9.86667 106.878 10.2933 107.238 10.84C107.612 11.3733 107.845 11.9867 107.938 12.68L105.358 12.8C105.292 12.44 105.172 12.1267 104.998 11.86C104.825 11.5933 104.592 11.3933 104.298 11.26C104.005 11.1133 103.658 11.04 103.258 11.04C102.658 11.04 102.205 11.16 101.898 11.4C101.592 11.64 101.438 11.96 101.438 12.36C101.438 12.64 101.505 12.8733 101.638 13.06C101.785 13.2467 102.018 13.4 102.338 13.52C102.658 13.6267 103.085 13.7267 103.618 13.82C104.738 13.9933 105.618 14.22 106.258 14.5C106.912 14.7667 107.372 15.1133 107.638 15.54C107.918 15.9533 108.058 16.4533 108.058 17.04C108.058 17.72 107.865 18.3 107.478 18.78C107.105 19.26 106.572 19.6267 105.878 19.88C105.198 20.12 104.398 20.24 103.478 20.24ZM113.576 20.24C112.496 20.24 111.636 19.8867 110.996 19.18C110.37 18.46 110.056 17.4667 110.056 16.2V9.32H112.616V15.56C112.616 16.4533 112.763 17.1133 113.056 17.54C113.363 17.9533 113.823 18.16 114.436 18.16C115.13 18.16 115.663 17.9333 116.036 17.48C116.423 17.0133 116.616 16.34 116.616 15.46V9.32H119.176V20H116.836L116.776 17.06L117.096 17.16C116.936 18.1733 116.556 18.94 115.956 19.46C115.356 19.98 114.563 20.24 113.576 20.24ZM121.99 20V9.32H124.31L124.39 11.94L124.15 11.82C124.27 11.2467 124.477 10.76 124.77 10.36C125.077 9.94667 125.443 9.63333 125.87 9.42C126.31 9.19333 126.79 9.08 127.31 9.08C128.217 9.08 128.95 9.34 129.51 9.86C130.07 10.3667 130.423 11.0667 130.57 11.96H130.23C130.35 11.3333 130.557 10.8133 130.85 10.4C131.143 9.97333 131.51 9.64667 131.95 9.42C132.403 9.19333 132.91 9.08 133.47 9.08C134.203 9.08 134.837 9.24 135.37 9.56C135.903 9.86667 136.31 10.32 136.59 10.92C136.883 11.52 137.03 12.26 137.03 13.14V20H134.47V13.8C134.47 12.92 134.317 12.26 134.01 11.82C133.717 11.38 133.263 11.16 132.65 11.16C132.237 11.16 131.883 11.2667 131.59 11.48C131.297 11.6933 131.07 12.0067 130.91 12.42C130.763 12.82 130.69 13.3067 130.69 13.88V20H128.31V13.88C128.31 13 128.177 12.3267 127.91 11.86C127.643 11.3933 127.183 11.16 126.53 11.16C126.117 11.16 125.763 11.2667 125.47 11.48C125.19 11.6933 124.963 12.0067 124.79 12.42C124.63 12.82 124.55 13.3067 124.55 13.88V20H121.99Z" fill="#061B31"/>
<path d="M12.2795 13.7107C12.2912 13.7229 12.3039 13.729 12.3178 13.729C16.261 13.7301 20.3054 13.7287 24.4509 13.7249C24.4573 13.7247 24.4637 13.7259 24.4696 13.7283C24.4756 13.7307 24.481 13.7342 24.4856 13.7387C24.4901 13.7432 24.4938 13.7485 24.4962 13.7544C24.4987 13.7603 24.5 13.7667 24.5 13.7731C24.4834 17.0145 23.2111 20.1112 20.9193 22.4046C18.6268 24.6988 15.5309 25.9728 12.2895 25.9902C12.2832 25.9902 12.2769 25.989 12.271 25.9866C12.2652 25.9841 12.2599 25.9806 12.2554 25.9761C12.2509 25.9716 12.2474 25.9663 12.2449 25.9605C12.2425 25.9546 12.2413 25.9483 12.2413 25.942C12.2424 21.7964 12.2413 17.7521 12.2379 13.8088C12.2379 13.795 12.2318 13.7822 12.2196 13.7706C12.208 13.7584 12.1953 13.7523 12.1814 13.7523C8.23818 13.7512 4.19379 13.7526 0.0482314 13.7565C0.03544 13.7565 0.0231697 13.7514 0.0141248 13.7423C0.00507993 13.7333 0 13.721 0 13.7082C0.0157995 10.466 1.28807 7.36931 3.57983 5.07589C5.87242 2.78247 8.96828 1.50854 12.2097 1.49024C12.2161 1.49013 12.2226 1.49132 12.2286 1.49375C12.2346 1.49617 12.24 1.49978 12.2446 1.50436C12.2492 1.50894 12.2528 1.51439 12.2552 1.52039C12.2577 1.5264 12.2588 1.53283 12.2587 1.5393C12.2571 5.68486 12.2579 9.72925 12.2612 13.6725C12.2612 13.6858 12.2673 13.6985 12.2795 13.7107Z" fill="#061B31"/>
</svg>
