<svg width="40" height="40" viewBox="0 0 40 40" fill="none" xmlns="http://www.w3.org/2000/svg">
<path fill-rule="evenodd" clip-rule="evenodd" d="M16.5497 9.56052C9.58811 10.4043 4.39643 16.9861 5.84262 24.435C6.78757 29.295 10.7043 33.2118 15.5644 34.1552C23.0132 35.6029 29.5951 30.4112 30.4388 23.4496C30.5353 22.6464 29.9019 21.9349 29.0923 21.9349H19.411C18.667 21.9349 18.0644 21.3325 18.0644 20.5869V10.9071C18.0644 10.0976 17.3531 9.464 16.5497 9.56052Z" stroke="#216351" stroke-width="2.4" stroke-linecap="round" stroke-linejoin="round"/>
<path fill-rule="evenodd" clip-rule="evenodd" d="M34.3892 15.6146C33.7057 10.4136 29.5867 6.29453 24.3857 5.61114C23.5777 5.50528 22.8555 6.14197 22.8555 6.95615V15.7999C22.8555 16.5424 23.4579 17.1449 24.202 17.1449H33.0441C33.8599 17.1449 34.495 16.4241 34.3892 15.6146Z" stroke="#216351" stroke-width="2.4" stroke-linecap="round" stroke-linejoin="round"/>
</svg>
