<svg width="24" height="24" viewBox="0 0 24 24" fill="none" xmlns="http://www.w3.org/2000/svg">
<path d="M18.0121 7.74349L15.4391 10.8144M5.95699 10.9894L8.63656 7.76629M13.3355 10.8177L10.74 7.76264M6.4583 12.125C6.4583 12.9805 5.76436 13.6744 4.90883 13.6744C4.05332 13.6744 3.35938 12.9805 3.35938 12.125C3.35938 11.2685 4.05332 10.5755 4.90883 10.5755C5.76436 10.5755 6.4583 11.2685 6.4583 12.125ZM12.8396 11.948C12.8396 11.0916 13.5335 10.3985 14.389 10.3985C15.2446 10.3985 15.9385 11.0916 15.9385 11.948C15.9385 12.8045 15.2446 13.4975 14.389 13.4975C13.5363 13.5013 12.8433 12.8128 12.8396 11.9602V11.948ZM11.2358 6.63149C11.2358 7.48794 10.5418 8.18095 9.68635 8.18095C8.82988 8.18095 8.13687 7.48794 8.13687 6.63149C8.13687 5.77598 8.82988 5.08203 9.68635 5.08203C10.5418 5.08203 11.2358 5.77598 11.2358 6.63149ZM20.6394 6.63149C20.6394 7.48794 19.9454 8.18095 19.0899 8.18095C18.2334 8.18095 17.5405 7.48794 17.5405 6.63149C17.5405 5.77598 18.2334 5.08203 19.0899 5.08203C19.9454 5.08203 20.6394 5.77598 20.6394 6.63149Z" stroke="#216351" stroke-width="1.44" stroke-linecap="round" stroke-linejoin="round"/>
<path d="M14.3885 16.9533V18.9203M19.0894 13.3652V18.9205M9.68584 13.3652V18.9205M4.91016 17.1303V18.9208" stroke="#216351" stroke-width="1.44" stroke-linecap="round" stroke-linejoin="round"/>
</svg>
