<svg width="24" height="24" viewBox="0 0 24 24" fill="none" xmlns="http://www.w3.org/2000/svg">
<path d="M7.95118 20.6394H16.0485C18.8786 20.6394 20.6394 18.6424 20.6394 15.814V8.18563C20.6394 5.35732 18.8786 3.35938 16.0476 3.35938H7.95118C5.121 3.35938 3.35938 5.35732 3.35938 8.18563V15.814C3.35938 18.6424 5.1294 20.6394 7.95118 20.6394Z" stroke="#216351" stroke-width="1.44" stroke-linecap="round" stroke-linejoin="round"/>
<path d="M15.8743 14.1672C14.7852 16.1174 12.379 16.9749 10.2746 16.0856C8.01702 15.1311 6.96154 12.5279 7.91614 10.2702C8.28042 9.4072 8.90717 8.68611 9.70016 8.20508" stroke="#216351" stroke-width="1.44" stroke-linecap="round" stroke-linejoin="round"/>
<path fill-rule="evenodd" clip-rule="evenodd" d="M16.4386 11.175C16.4629 9.77771 14.748 7.52664 12.6566 7.56494C12.4932 7.57147 12.3625 7.70318 12.3568 7.86663C12.3493 8.59052 12.3512 9.80853 12.354 10.6305C12.355 11.1059 12.7379 11.4898 13.2143 11.4935C14.0951 11.4992 15.4392 11.5048 16.1696 11.486C16.3219 11.4609 16.4359 11.3301 16.4386 11.175Z" stroke="#216351" stroke-width="1.44" stroke-linecap="round" stroke-linejoin="round"/>
</svg>
