<svg width="24" height="24" viewBox="0 0 24 24" fill="none" xmlns="http://www.w3.org/2000/svg">
<path d="M14.3195 4.11719H7.7808C5.06999 4.11719 3.39062 6.03673 3.39062 8.74568V16.018C3.39062 18.7278 5.03741 20.639 7.7808 20.639H15.5195C18.2284 20.639 19.9097 18.7278 19.9097 16.018V9.68497" stroke="#216351" stroke-width="1.44" stroke-linecap="round" stroke-linejoin="round"/>
<path fill-rule="evenodd" clip-rule="evenodd" d="M18.88 3.35938C19.8351 3.35938 20.6097 4.13389 20.6097 5.08901C20.6097 6.04412 19.8351 6.81864 18.88 6.81864C17.9249 6.81864 17.1504 6.04412 17.1504 5.08901C17.1504 4.13389 17.9249 3.35938 18.88 3.35938Z" stroke="#216351" stroke-width="1.44" stroke-linecap="round" stroke-linejoin="round"/>
<path d="M15.8088 14.61L13.1156 11.1107L10.0436 13.5227L7.4082 10.1211" stroke="#216351" stroke-width="1.44" stroke-linecap="round" stroke-linejoin="round"/>
</svg>
