<svg width="123" height="32" viewBox="0 0 123 32" fill="none" xmlns="http://www.w3.org/2000/svg">
<path d="M42.7256 25.2803C41.6214 25.2803 40.6149 25.0552 39.7061 24.6051C38.8058 24.1549 38.1349 23.5476 37.6932 22.7832H37.1326L37.8206 22.1717V25H35.3108V6.75618H37.9353V13.6486L37.8079 13.7505C38.2241 13.037 38.8695 12.468 39.7444 12.0433C40.6192 11.6102 41.5832 11.3936 42.6364 11.3936C44.454 11.3936 45.9998 12.0433 47.2738 13.3428C48.5563 14.6338 49.1975 16.2985 49.1975 18.3369C49.1975 20.3329 48.569 21.9891 47.312 23.3056C46.055 24.622 44.5262 25.2803 42.7256 25.2803ZM42.1522 22.9106C43.4093 22.9106 44.4497 22.4944 45.2736 21.6621C46.1059 20.8297 46.5221 19.7214 46.5221 18.3369C46.5221 16.9525 46.1102 15.8441 45.2863 15.0118C44.4625 14.1794 43.4178 13.7632 42.1522 13.7632C40.9122 13.7632 39.8845 14.1879 39.0691 15.0372C38.2538 15.8866 37.8376 16.9865 37.8206 18.3369C37.8121 19.6364 38.2113 20.7236 39.0182 21.5984C39.8335 22.4732 40.8782 22.9106 42.1522 22.9106ZM51.2596 25V22.8214L57.2857 16.5278C58.4323 15.3303 59.2052 14.413 59.6044 13.776C60.0036 13.139 60.2032 12.4637 60.2032 11.7503C60.2032 10.901 59.9356 10.2257 59.4006 9.72462C58.8655 9.21502 58.1096 8.96021 57.1328 8.96021C56.5722 8.96021 56.0839 9.03666 55.6677 9.18954C55.26 9.34242 54.8948 9.58448 54.5721 9.91572C54.2578 10.247 53.969 10.6334 53.7057 11.0751C53.4424 11.5167 53.3108 11.7376 53.3108 11.7376L51.1959 10.5909C51.1959 10.5909 51.3446 10.3107 51.6418 9.7501C51.9476 9.18954 52.3638 8.65021 52.8904 8.13211C53.4254 7.60552 54.0497 7.19783 54.7632 6.90906C55.4851 6.62028 56.3302 6.47589 57.2984 6.47589C59.0141 6.47589 60.373 6.94728 61.3753 7.89005C62.3775 8.83281 62.8786 10.0431 62.8786 11.521C62.8786 12.5402 62.6195 13.4872 62.1015 14.362C61.5918 15.2283 60.6873 16.3282 59.3878 17.6617L54.6485 22.5666V22.5794H63.35V25H51.2596ZM73.7288 25.2803C72.6246 25.2803 71.6182 25.0552 70.7094 24.6051C69.8091 24.1549 69.1381 23.5476 68.6964 22.7832H68.1359L68.8238 22.1717V25H66.314V6.75618H68.9385V13.6486L68.8111 13.7505C69.2273 13.037 69.8728 12.468 70.7476 12.0433C71.6224 11.6102 72.5864 11.3936 73.6396 11.3936C75.4572 11.3936 77.003 12.0433 78.277 13.3428C79.5595 14.6338 80.2008 16.2985 80.2008 18.3369C80.2008 20.3329 79.5722 21.9891 78.3152 23.3056C77.0582 24.622 75.5294 25.2803 73.7288 25.2803ZM73.1555 22.9106C74.4125 22.9106 75.4529 22.4944 76.2768 21.6621C77.1092 20.8297 77.5253 19.7214 77.5253 18.3369C77.5253 16.9525 77.1134 15.8441 76.2895 15.0118C75.4657 14.1794 74.421 13.7632 73.1555 13.7632C71.9154 13.7632 70.8877 14.1879 70.0724 15.0372C69.257 15.8866 68.8408 16.9865 68.8238 18.3369C68.8154 19.6364 69.2145 20.7236 70.0214 21.5984C70.8368 22.4732 71.8815 22.9106 73.1555 22.9106ZM87.0404 25.2803C85.5795 25.2803 84.3777 24.8896 83.4349 24.1082C82.4922 23.3183 82.0208 22.2864 82.0208 21.0123C82.0208 19.6704 82.5346 18.6002 83.5623 17.8018C84.5985 17.0035 85.9532 16.6043 87.6264 16.6043C88.2804 16.6043 88.9429 16.6765 89.6139 16.8209C90.2934 16.9568 90.8837 17.1521 91.3848 17.4069V16.5915C91.3848 15.6488 91.0578 14.9141 90.4038 14.3875C89.7498 13.8609 88.9642 13.5976 88.0469 13.5976C87.5458 13.5976 87.0998 13.6613 86.7092 13.7887C86.3269 13.9161 85.9787 14.086 85.6645 14.2983C85.3587 14.5107 85.0529 14.7655 84.7472 15.0627C84.4499 15.36 84.3013 15.5086 84.3013 15.5086L82.4922 14.0563C82.4922 14.0563 82.6875 13.8609 83.0782 13.4702C83.4689 13.071 83.9148 12.7101 84.4159 12.3873C84.9255 12.0646 85.4903 11.8182 86.1104 11.6484C86.7304 11.4785 87.4778 11.3936 88.3526 11.3936C90.0343 11.3936 91.389 11.848 92.4167 12.7568C93.4529 13.6656 93.971 14.9013 93.971 16.4641V25H91.4485V22.2099L92.0855 22.9106H91.4357C90.9686 23.6835 90.3486 24.2738 89.5757 24.6815C88.8113 25.0807 87.9662 25.2803 87.0404 25.2803ZM87.55 23.1272C88.7136 23.1272 89.6436 22.7195 90.3401 21.9042C91.0365 21.0888 91.3848 20.2649 91.3848 19.4326V19.3052C90.9941 19.0504 90.493 18.8465 89.8814 18.6937C89.2784 18.5323 88.6372 18.4516 87.9577 18.4516C86.93 18.4516 86.1189 18.6597 85.5243 19.0759C84.9383 19.4835 84.6453 20.0781 84.6453 20.8595C84.6453 21.5729 84.9086 22.1292 85.4351 22.5284C85.9702 22.9276 86.6752 23.1272 87.55 23.1272ZM101.754 25.2803C100.82 25.2803 100.021 25.1699 99.3587 24.949C98.6962 24.7197 98.1229 24.397 97.6388 23.9808C97.1631 23.5561 96.7894 23.1017 96.5176 22.6176C96.2458 22.1335 96.11 21.8914 96.11 21.8914L98.1229 20.8467C98.1229 20.8467 98.2333 21.0293 98.4541 21.3946C98.6835 21.7513 98.9425 22.0655 99.2313 22.3373C99.5285 22.6091 99.881 22.8214 100.289 22.9743C100.705 23.1187 101.21 23.1909 101.805 23.1909C102.552 23.1909 103.168 23.0338 103.652 22.7195C104.136 22.4053 104.378 21.9763 104.378 21.4328C104.378 20.8552 104.17 20.4263 103.754 20.146C103.346 19.8657 102.552 19.5812 101.372 19.2924C99.5965 18.8593 98.3649 18.3242 97.677 17.6872C96.9975 17.0417 96.6578 16.2178 96.6578 15.2156C96.6578 14.0605 97.1292 13.1347 98.0719 12.4383C99.0232 11.7418 100.238 11.3936 101.716 11.3936C102.446 11.3936 103.079 11.4785 103.614 11.6484C104.157 11.8098 104.642 12.0603 105.066 12.4C105.491 12.7313 105.848 13.1092 106.136 13.5339C106.434 13.9501 106.582 14.1582 106.582 14.1582L104.697 15.3175C104.697 15.3175 104.595 15.1774 104.391 14.8971C104.196 14.6083 103.962 14.3578 103.69 14.1454C103.419 13.9246 103.113 13.7632 102.773 13.6613C102.442 13.5509 102.06 13.4957 101.626 13.4957C100.871 13.4957 100.276 13.6486 99.8428 13.9543C99.4096 14.2601 99.1931 14.6338 99.1931 15.0755C99.1931 15.619 99.4266 16.0267 99.8938 16.2985C100.361 16.5703 101.189 16.8506 102.378 17.1394C104.026 17.5301 105.198 18.0269 105.894 18.63C106.591 19.233 106.939 20.112 106.939 21.2672C106.939 22.5242 106.459 23.5094 105.499 24.2229C104.54 24.9278 103.291 25.2803 101.754 25.2803ZM115.575 25.2803C113.622 25.2803 111.978 24.6263 110.645 23.3183C109.311 22.0103 108.645 20.3499 108.645 18.3369C108.645 16.3325 109.307 14.6763 110.632 13.3683C111.966 12.0518 113.584 11.3936 115.486 11.3936C117.44 11.3936 119.015 11.9966 120.213 13.2027C121.419 14.4087 122.022 15.9333 122.022 17.7764V18.9612H109.995V17.1266H119.486C119.444 16.1329 119.058 15.309 118.327 14.655C117.605 13.9926 116.662 13.6613 115.499 13.6613C114.293 13.6613 113.261 14.103 112.403 14.9863C111.554 15.8696 111.129 16.9907 111.129 18.3497C111.129 19.7511 111.579 20.8849 112.479 21.7513C113.388 22.6176 114.441 23.0508 115.639 23.0508C116.259 23.0508 116.803 22.9658 117.27 22.796C117.737 22.6176 118.157 22.3628 118.531 22.0316C118.913 21.6918 119.304 21.1992 119.703 20.5537L121.729 21.5474C121.245 22.4732 120.714 23.1952 120.136 23.7132C119.567 24.2229 118.917 24.6136 118.187 24.8853C117.457 25.1486 116.586 25.2803 115.575 25.2803Z" fill="white"/>
<path fill-rule="evenodd" clip-rule="evenodd" d="M13.3333 29.3327C20.6971 29.3327 26.6667 23.3631 26.6667 15.9993C26.6667 8.63555 20.6971 2.66602 13.3333 2.66602C5.96953 2.66602 0 8.63555 0 15.9993C0 23.3631 5.96953 29.3327 13.3333 29.3327ZM17.4929 8.87724C17.6953 8.15805 16.9974 7.73277 16.36 8.18688L7.46208 14.5257C6.77081 15.0182 6.87955 15.9993 7.62541 15.9993H9.96848V15.9812H14.535L10.8141 17.2941L9.17381 23.1215C8.97135 23.8407 9.66921 24.2659 10.3067 23.8118L19.2046 17.473C19.8959 16.9805 19.7871 15.9993 19.0413 15.9993H15.4881L17.4929 8.87724Z" fill="white"/>
</svg>
