<svg width="24" height="24" viewBox="0 0 24 24" fill="none" xmlns="http://www.w3.org/2000/svg">
<path d="M11.5305 18.0285H6.42121C4.53348 18.0285 3.35938 16.6966 3.35938 14.8116V7.70907C3.35938 5.82415 4.53348 4.49219 6.42027 4.49219H17.5785C19.4596 4.49219 20.6394 5.82415 20.6394 7.70907V9.62762" stroke="#216351" stroke-width="1.44" stroke-linecap="round" stroke-linejoin="round"/>
<path d="M6.44531 7.85156H7.79222" stroke="#216351" stroke-width="1.44" stroke-linecap="round" stroke-linejoin="round"/>
<path fill-rule="evenodd" clip-rule="evenodd" d="M9.80469 11.2604C9.80469 10.0471 10.7882 9.06445 12.0007 9.06445C13.2139 9.06445 14.1976 10.0471 14.1976 11.2604C14.1976 12.4738 13.2139 13.4563 12.0007 13.4563C10.7882 13.4563 9.80469 12.4738 9.80469 11.2604Z" stroke="#216351" stroke-width="1.44" stroke-linecap="round" stroke-linejoin="round"/>
<path fill-rule="evenodd" clip-rule="evenodd" d="M16.9286 14.8031L17.6469 13.2853C17.7394 13.0872 18.0065 13.0872 18.098 13.2853L18.8163 14.8031L20.4248 15.0478C20.6303 15.0796 20.7125 15.3486 20.563 15.4989L19.401 16.6852L19.6747 18.3609C19.7102 18.5748 19.4944 18.7402 19.3095 18.6374L17.8729 17.8472L16.4354 18.6374C16.2515 18.7402 16.0347 18.5748 16.0702 18.3609L16.3439 16.6852L15.1819 15.4989C15.0325 15.3486 15.1146 15.0796 15.3202 15.0478L16.9286 14.8031Z" stroke="#216351" stroke-width="1.44" stroke-linecap="round" stroke-linejoin="round"/>
</svg>
