<svg width="24" height="24" viewBox="0 0 24 24" fill="none" xmlns="http://www.w3.org/2000/svg">
<path d="M17.0609 14.6249V11.687C17.0609 10.5913 16.1727 9.70312 15.0771 9.70312H12.332" stroke="#216351" stroke-width="1.5" stroke-linecap="round" stroke-linejoin="round"/>
<path fill-rule="evenodd" clip-rule="evenodd" d="M17.0628 19.9967C15.5971 19.9967 14.4082 18.8078 14.4082 17.3421C14.4082 15.8764 15.5971 14.6875 17.0628 14.6875C18.5285 14.6875 19.7174 15.8764 19.7174 17.3421C19.7174 18.8078 18.5285 19.9967 17.0628 19.9967Z" stroke="#216351" stroke-width="1.5" stroke-linecap="round" stroke-linejoin="round"/>
<path fill-rule="evenodd" clip-rule="evenodd" d="M6.9378 12.3287C5.47206 12.3287 4.2832 11.1399 4.2832 9.67413C4.2832 8.20839 5.47206 7.01953 6.9378 7.01953C8.40354 7.01953 9.59239 8.20839 9.59239 9.67413C9.59239 11.1399 8.40354 12.3287 6.9378 12.3287Z" stroke="#216351" stroke-width="1.5" stroke-linecap="round" stroke-linejoin="round"/>
<path d="M6.9377 7.02072L6.9375 4M6.9375 20V12.3286" stroke="#216351" stroke-width="1.5" stroke-linecap="round" stroke-linejoin="round"/>
</svg>
