<svg width="121" height="22" viewBox="0 0 121 22" fill="none" xmlns="http://www.w3.org/2000/svg">
<path d="M21.1628 11.1215C21.1628 13.9276 20.0481 16.6187 18.0639 18.603C16.0797 20.5872 13.3885 21.7019 10.5824 21.7019C7.77629 21.7019 5.08511 20.5872 3.10089 18.603C1.11668 16.6187 0.00195312 13.9276 0.00195312 11.1215C0.00195312 9.73202 0.275624 8.35618 0.807341 7.0725C1.33906 5.78882 2.11841 4.62244 3.10089 3.63996C5.08511 1.65574 7.77629 0.541016 10.5824 0.541016C11.9718 0.541016 13.3477 0.814687 14.6314 1.3464C15.915 1.87812 17.0814 2.65747 18.0639 3.63996C19.0464 4.62244 19.8257 5.78882 20.3575 7.0725C20.8892 8.35618 21.1628 9.73202 21.1628 11.1215ZM3.81789 5.83649C3.81789 5.85264 3.83512 5.88198 3.86958 5.92452C5.52598 7.96372 7.95525 9.15898 10.5824 9.15898C13.2087 9.15898 15.638 7.96372 17.2936 5.92452C17.3286 5.88198 17.3461 5.85264 17.3461 5.83649C17.3461 5.82141 17.3286 5.79261 17.2936 5.75007C15.638 3.71087 13.2079 2.51561 10.5816 2.51561C7.95526 2.51642 5.52598 3.71087 3.86958 5.75088C3.83512 5.79342 3.81789 5.82195 3.81789 5.83649ZM9.85959 11.1247C9.85959 11.1215 9.85744 11.1196 9.85314 11.119C7.04051 10.8875 4.67826 9.74503 2.76639 7.69156C2.76189 7.6868 2.75629 7.6832 2.7501 7.68109C2.7439 7.67897 2.7373 7.67841 2.7309 7.67945C2.72449 7.68049 2.71847 7.6831 2.71339 7.68705C2.70831 7.691 2.70432 7.69615 2.70178 7.70206C2.22691 8.79556 1.98947 9.93563 1.98947 11.1223C1.98947 12.3089 2.22718 13.449 2.70259 14.5425C2.70518 14.5482 2.70915 14.5532 2.71417 14.5571C2.71918 14.5609 2.72509 14.5635 2.73137 14.5645C2.73766 14.5655 2.74413 14.565 2.75023 14.563C2.75634 14.561 2.76188 14.5576 2.76639 14.553C4.67826 12.4995 7.04051 11.3567 9.85314 11.1247C9.85744 11.1242 9.85959 11.1242 9.85959 11.1247ZM11.2689 11.1207C11.2689 11.1239 11.2713 11.1258 11.2761 11.1263C14.1054 11.3584 16.482 12.507 18.4057 14.5724C18.4102 14.5771 18.4159 14.5807 18.4221 14.5827C18.4284 14.5848 18.435 14.5853 18.4414 14.5841C18.4478 14.583 18.4538 14.5803 18.4589 14.5763C18.4639 14.5723 18.4678 14.567 18.4703 14.5611C18.9479 13.4611 19.1864 12.3143 19.1858 11.1207C19.1853 9.92701 18.946 8.78021 18.4679 7.68025C18.4653 7.67435 18.4613 7.66919 18.4562 7.66525C18.4512 7.6613 18.4452 7.65869 18.4388 7.65765C18.4323 7.65661 18.4258 7.65717 18.4196 7.65928C18.4134 7.66139 18.4078 7.66499 18.4033 7.66975C16.4812 9.73615 14.1054 10.8864 11.2761 11.1207C11.2713 11.1212 11.2689 11.1212 11.2689 11.1207ZM17.3461 16.4056C17.3461 16.3895 17.3289 16.3601 17.2944 16.3176C15.638 14.2792 13.2087 13.0848 10.5832 13.0856C7.95768 13.0856 5.5284 14.2808 3.87281 16.32C3.83835 16.3626 3.82112 16.3919 3.82112 16.4081C3.82112 16.4226 3.83835 16.4511 3.87281 16.4937C5.52921 18.5329 7.95849 19.7273 10.584 19.7265C13.2103 19.7265 15.6388 18.5312 17.2944 16.492C17.3289 16.4495 17.3461 16.4207 17.3461 16.4056Z" fill="white"/>
<path d="M29.8292 17V4.73532H32.0748V16.309L30.8484 15.048H37.8963V17H29.8292ZM43.229 17.2073C42.3192 17.2073 41.5188 17.0115 40.8279 16.62C40.1484 16.2169 39.6187 15.6526 39.2386 14.9271C38.8701 14.2016 38.6859 13.3551 38.6859 12.3878C38.6859 11.4089 38.8701 10.5625 39.2386 9.84848C39.6187 9.12297 40.1484 8.56443 40.8279 8.17288C41.5188 7.76982 42.3192 7.56829 43.229 7.56829C44.1388 7.56829 44.9334 7.76982 45.6128 8.17288C46.2923 8.56443 46.8163 9.12297 47.1848 9.84848C47.5648 10.5625 47.7548 11.4089 47.7548 12.3878C47.7548 13.3551 47.5648 14.2016 47.1848 14.9271C46.8163 15.6526 46.2923 16.2169 45.6128 16.62C44.9334 17.0115 44.1388 17.2073 43.229 17.2073ZM43.229 15.4108C43.943 15.4108 44.49 15.1459 44.87 14.6162C45.2616 14.0864 45.4574 13.3436 45.4574 12.3878C45.4574 11.4435 45.2616 10.7064 44.87 10.1767C44.49 9.63543 43.943 9.3648 43.229 9.3648C42.515 9.3648 41.9622 9.63543 41.5707 10.1767C41.1791 10.7064 40.9833 11.4435 40.9833 12.3878C40.9833 13.3436 41.1791 14.0864 41.5707 14.6162C41.9622 15.1459 42.515 15.4108 43.229 15.4108ZM53.3996 19.7984C52.5934 19.7984 51.9025 19.689 51.3267 19.4702C50.7509 19.2514 50.2845 18.9405 49.9275 18.5374C49.582 18.1459 49.3401 17.691 49.2019 17.1727L51.4821 17.0173C51.5973 17.3628 51.7931 17.6334 52.0695 17.8292C52.3574 18.0249 52.8007 18.1228 53.3996 18.1228C54.079 18.1228 54.603 17.9674 54.9715 17.6564C55.34 17.357 55.5243 16.8848 55.5243 16.2399V15.0653C55.3055 15.5144 54.9543 15.8772 54.4706 16.1536C53.9869 16.4184 53.4456 16.5509 52.8468 16.5509C52.0867 16.5509 51.4073 16.3666 50.8084 15.9981C50.2211 15.6181 49.7605 15.0941 49.4265 14.4261C49.0925 13.7467 48.9256 12.9636 48.9256 12.0769C48.9256 11.1901 49.0868 10.4128 49.4092 9.74484C49.7432 9.06539 50.2038 8.53564 50.7912 8.15561C51.3785 7.76406 52.0522 7.56829 52.8122 7.56829C53.4802 7.56829 54.056 7.718 54.5397 8.01742C55.0233 8.31684 55.3746 8.71414 55.5934 9.20934V7.77558H57.7527V16.1881C57.7527 16.9712 57.5684 17.6334 57.1999 18.1746C56.8429 18.7159 56.3362 19.119 55.6798 19.3838C55.0349 19.6602 54.2748 19.7984 53.3996 19.7984ZM53.365 14.8235C54.0214 14.8235 54.5454 14.5816 54.937 14.0979C55.3285 13.6027 55.5301 12.9233 55.5416 12.0596C55.5531 11.4838 55.4667 10.9943 55.2825 10.5913C55.1097 10.1767 54.8564 9.86 54.5224 9.64119C54.1999 9.41087 53.8142 9.29571 53.365 9.29571C52.6856 9.29571 52.1558 9.54906 51.7758 10.0558C51.4073 10.551 51.223 11.2189 51.223 12.0596C51.223 12.9003 51.413 13.574 51.7931 14.0807C52.1846 14.5759 52.7086 14.8235 53.365 14.8235ZM64.012 17.2073C63.1022 17.2073 62.3019 17.0115 61.6109 16.62C60.9314 16.2169 60.4017 15.6526 60.0217 14.9271C59.6531 14.2016 59.4689 13.3551 59.4689 12.3878C59.4689 11.4089 59.6531 10.5625 60.0217 9.84848C60.4017 9.12297 60.9314 8.56443 61.6109 8.17288C62.3019 7.76982 63.1022 7.56829 64.012 7.56829C64.9218 7.56829 65.7164 7.76982 66.3958 8.17288C67.0753 8.56443 67.5993 9.12297 67.9678 9.84848C68.3478 10.5625 68.5378 11.4089 68.5378 12.3878C68.5378 13.3551 68.3478 14.2016 67.9678 14.9271C67.5993 15.6526 67.0753 16.2169 66.3958 16.62C65.7164 17.0115 64.9218 17.2073 64.012 17.2073ZM64.012 15.4108C64.726 15.4108 65.273 15.1459 65.6531 14.6162C66.0446 14.0864 66.2404 13.3436 66.2404 12.3878C66.2404 11.4435 66.0446 10.7064 65.6531 10.1767C65.273 9.63543 64.726 9.3648 64.012 9.3648C63.298 9.3648 62.7452 9.63543 62.3537 10.1767C61.9621 10.7064 61.7664 11.4435 61.7664 12.3878C61.7664 13.3436 61.9621 14.0864 62.3537 14.6162C62.7452 15.1459 63.298 15.4108 64.012 15.4108ZM70.2441 17V7.77558H72.4552V17H70.2441ZM70.2095 6.54911V4.57985H72.507V6.54911H70.2095ZM75.0181 19.5911V7.77558H77.1428L77.1946 9.74484L76.9701 9.64119C77.2004 8.96174 77.5747 8.44927 78.0929 8.10379C78.6226 7.74679 79.2388 7.56829 79.9412 7.56829C80.8165 7.56829 81.542 7.78709 82.1178 8.22471C82.7051 8.66232 83.1427 9.24389 83.4306 9.9694C83.7185 10.6949 83.8625 11.501 83.8625 12.3878C83.8625 13.2745 83.7128 14.0807 83.4134 14.8062C83.1255 15.5317 82.6878 16.1133 82.1005 16.5509C81.5247 16.9885 80.7992 17.2073 79.924 17.2073C79.4633 17.2073 79.0315 17.1267 78.6284 16.9655C78.2369 16.8042 77.8971 16.5739 77.6092 16.2745C77.3328 15.9751 77.1371 15.6238 77.0219 15.2208L77.2292 15.048V19.5911H75.0181ZM79.4057 15.4108C80.0737 15.4108 80.5977 15.1459 80.9777 14.6162C81.3692 14.0749 81.565 13.3321 81.565 12.3878C81.565 11.4435 81.3692 10.7064 80.9777 10.1767C80.5977 9.63543 80.0737 9.3648 79.4057 9.3648C78.9566 9.3648 78.5708 9.47997 78.2484 9.71029C77.9259 9.9291 77.6726 10.2631 77.4883 10.7122C77.3156 11.1613 77.2292 11.7199 77.2292 12.3878C77.2292 13.0557 77.3156 13.6143 77.4883 14.0634C77.661 14.5125 77.9086 14.8522 78.2311 15.0826C78.5651 15.3014 78.9566 15.4108 79.4057 15.4108ZM89.3268 17.2073C88.417 17.2073 87.6512 17.0749 87.0293 16.81C86.419 16.5451 85.9468 16.1766 85.6128 15.7044C85.2789 15.2323 85.0889 14.6968 85.0428 14.0979L87.3057 13.9943C87.3863 14.478 87.5879 14.8522 87.9103 15.1171C88.2328 15.382 88.7107 15.5144 89.3441 15.5144C89.8623 15.5144 90.2654 15.4338 90.5533 15.2726C90.8527 15.0998 91.0024 14.835 91.0024 14.478C91.0024 14.2707 90.9506 14.0979 90.8469 13.9597C90.7433 13.8215 90.5475 13.7006 90.2596 13.597C89.9717 13.4933 89.5456 13.3897 88.9813 13.286C88.037 13.1248 87.2942 12.929 86.7529 12.6987C86.2117 12.4569 85.8259 12.1575 85.5956 11.8005C85.3768 11.4435 85.2674 11.0001 85.2674 10.4704C85.2674 9.60664 85.5956 8.90992 86.252 8.38018C86.9199 7.83892 87.893 7.56829 89.1713 7.56829C90.0005 7.56829 90.6972 7.70648 91.2615 7.98287C91.8258 8.24774 92.2634 8.61626 92.5743 9.08842C92.8968 9.54906 93.0983 10.0788 93.1789 10.6776L90.9506 10.7813C90.893 10.4704 90.7893 10.1997 90.6396 9.9694C90.4899 9.73908 90.2884 9.56634 90.035 9.45118C89.7817 9.3245 89.4823 9.26116 89.1368 9.26116C88.6186 9.26116 88.227 9.3648 87.9621 9.5721C87.6973 9.77939 87.5648 10.0558 87.5648 10.4013C87.5648 10.6431 87.6224 10.8446 87.7376 11.0059C87.8642 11.1671 88.0658 11.2995 88.3422 11.4032C88.6186 11.4953 88.9871 11.5817 89.4477 11.6623C90.4151 11.812 91.1751 12.0078 91.7279 12.2496C92.2922 12.4799 92.6895 12.7793 92.9198 13.1479C93.1617 13.5049 93.2826 13.9367 93.2826 14.4434C93.2826 15.0307 93.1156 15.5317 92.7816 15.9463C92.4592 16.3609 91.9985 16.6775 91.3997 16.8964C90.8124 17.1036 90.1214 17.2073 89.3268 17.2073ZM98.0485 17.2073C97.1157 17.2073 96.3729 16.9021 95.8201 16.2918C95.2789 15.6699 95.0083 14.8119 95.0083 13.7179V7.77558H97.2194V13.1651C97.2194 13.9367 97.346 14.5068 97.5994 14.8753C97.8643 15.2323 98.2616 15.4108 98.7913 15.4108C99.3901 15.4108 99.8508 15.215 100.173 14.8235C100.507 14.4204 100.674 13.8388 100.674 13.0788V7.77558H102.885V17H100.864L100.812 14.4607L101.089 14.5471C100.951 15.4223 100.622 16.0845 100.104 16.5336C99.5859 16.9827 98.9007 17.2073 98.0485 17.2073ZM105.315 17V7.77558H107.319L107.388 10.0385L107.181 9.93485C107.285 9.43966 107.463 9.01932 107.717 8.67384C107.981 8.31684 108.298 8.04621 108.667 7.86195C109.047 7.66618 109.461 7.56829 109.91 7.56829C110.693 7.56829 111.327 7.79285 111.811 8.24198C112.294 8.67959 112.599 9.28419 112.726 10.0558H112.432C112.536 9.51451 112.715 9.06539 112.968 8.70839C113.221 8.33987 113.538 8.05772 113.918 7.86195C114.31 7.66618 114.747 7.56829 115.231 7.56829C115.864 7.56829 116.411 7.70648 116.872 7.98287C117.333 8.24774 117.684 8.63929 117.926 9.15751C118.179 9.67574 118.306 10.3149 118.306 11.075V17H116.095V11.645C116.095 10.8849 115.962 10.3149 115.697 9.93485C115.444 9.55482 115.052 9.3648 114.523 9.3648C114.166 9.3648 113.86 9.45693 113.607 9.64119C113.354 9.82545 113.158 10.0961 113.02 10.4531C112.893 10.7986 112.83 11.2189 112.83 11.7141V17H110.774V11.7141C110.774 10.954 110.659 10.3725 110.429 9.9694C110.198 9.56634 109.801 9.3648 109.237 9.3648C108.88 9.3648 108.574 9.45693 108.321 9.64119C108.079 9.82545 107.884 10.0961 107.734 10.4531C107.596 10.7986 107.527 11.2189 107.527 11.7141V17H105.315Z" fill="white"/>
</svg>
