<svg width="24" height="24" viewBox="0 0 24 24" fill="none" xmlns="http://www.w3.org/2000/svg">
<path fill-rule="evenodd" clip-rule="evenodd" d="M8.72123 18.1441C8.36923 18.1441 8.04323 17.9591 7.86223 17.6561C6.94423 16.1161 5.76323 14.7311 4.35423 13.5401C3.93223 13.1831 3.88023 12.5521 4.23623 12.1301C4.59323 11.7071 5.22323 11.6551 5.64523 12.0121C6.78923 12.9791 7.80023 14.0621 8.66223 15.2441C10.2992 12.5971 13.5172 8.40012 18.5642 5.95512C19.0612 5.71612 19.6592 5.92112 19.9002 6.41912C20.1402 6.91612 19.9332 7.51412 19.4362 7.75512C13.8602 10.4561 10.7022 15.5491 9.60423 17.6141C9.43423 17.9321 9.10623 18.1351 8.74523 18.1441H8.72123Z" fill="#061B31"/>
</svg>
