<svg width="24" height="24" viewBox="0 0 24 24" fill="none" xmlns="http://www.w3.org/2000/svg">
<path fill-rule="evenodd" clip-rule="evenodd" d="M13.1825 12.6515L13.0577 12.7216C12.5096 13.0307 12.3147 13.1852 12.3185 13.4387C12.3224 13.8361 12.0046 14.1625 11.6072 14.1683H11.5985C11.204 14.1683 10.8833 13.8515 10.8785 13.4569C10.8632 12.304 11.7953 11.7798 12.3521 11.4668L12.476 11.3968C12.9656 11.1251 13.2008 10.7689 13.2008 10.3024C13.2008 9.53339 12.5777 8.90843 11.8126 8.90843C11.0485 8.90843 10.4273 9.53339 10.4273 10.3024C10.4273 10.6998 10.1048 11.0224 9.70733 11.0224C9.30987 11.0224 8.98731 10.6998 8.98731 10.3024C8.98731 8.73947 10.2545 7.46843 11.8126 7.46843C13.3717 7.46843 14.6408 8.73947 14.6408 10.3024C14.6408 11.2969 14.1224 12.1312 13.1825 12.6515ZM11.7214 16.3504C11.6821 16.3561 11.6417 16.36 11.6024 16.36C11.2558 16.36 10.9515 16.1104 10.892 15.758C10.8277 15.3664 11.0888 14.9776 11.4824 14.9123C11.8779 14.847 12.2427 15.0956 12.308 15.4873L12.3137 15.5209C12.3781 15.9136 12.1141 16.2851 11.7214 16.3504ZM18.2629 5.43035C16.5416 3.70331 14.251 2.75195 11.8126 2.75195C9.37515 2.75195 7.08459 3.70331 5.36331 5.43035C2.67051 8.13371 1.93611 12.2819 3.52683 15.7302C3.71595 16.2025 3.83115 16.5088 3.83115 16.7785C3.83115 17.0982 3.69483 17.4976 3.56331 17.8835C3.30987 18.6313 3.02091 19.479 3.63915 20.0992C4.26027 20.7222 5.10891 20.4284 5.85579 20.1712C6.23787 20.0387 6.63243 19.9033 6.94539 19.9014C7.22379 19.9014 7.57515 20.0425 7.98123 20.2067C9.20043 20.7702 10.5013 21.0438 11.7934 21.0438C14.1704 21.0438 16.5195 20.1174 18.2629 18.3673C21.8158 14.8009 21.8158 8.99771 18.2629 5.43035Z" fill="#216351"/>
</svg>
