<svg width="18" height="17" viewBox="0 0 18 17" fill="none" xmlns="http://www.w3.org/2000/svg">
<path d="M17.1977 17H13.6366V11.4782C13.6366 10.1614 13.6129 8.46639 11.7845 8.46639C9.92978 8.46639 9.646 9.90103 9.646 11.3823V16.9996H6.08494V5.64451H9.50355V7.1963H9.55141C9.89353 6.6171 10.3879 6.14063 10.9819 5.81762C11.5759 5.49461 12.2472 5.33717 12.9244 5.36206C16.5337 5.36206 17.1991 7.71271 17.1991 10.7708L17.1977 17Z" fill="black"/>
<path d="M3.84741 17H0.282658V5.64451H3.84741V17Z" fill="black"/>
<path d="M2.06689 4.09234C1.65817 4.09241 1.2586 3.97248 0.918721 3.7477C0.578842 3.52293 0.313932 3.20341 0.157454 2.82955C0.000975741 2.45568 -0.0400312 2.04428 0.0396341 1.64734C0.119299 1.25041 0.316058 0.885784 0.605015 0.599571C0.893971 0.313357 1.26215 0.118412 1.66301 0.0393891C2.06386 -0.0396341 2.47937 0.000813362 2.857 0.155616C3.23464 0.310419 3.55743 0.572623 3.78456 0.909074C4.0117 1.24552 4.13297 1.64111 4.13305 2.0458C4.1331 2.31451 4.07968 2.5806 3.97588 2.82887C3.87207 3.07714 3.71991 3.30273 3.52805 3.49277C3.33619 3.68281 3.10838 3.83357 2.85768 3.93644C2.60698 4.03932 2.33827 4.09229 2.06689 4.09234Z" fill="black"/>
</svg>
