<svg width="40" height="40" viewBox="0 0 40 40" fill="none" xmlns="http://www.w3.org/2000/svg">
<rect x="0.5" y="0.5" width="39" height="39" rx="5.5" fill="white"/>
<rect x="0.5" y="0.5" width="39" height="39" rx="5.5" stroke="#F7F7F7"/>
<path d="M30 20C30 22.6522 28.9464 25.1957 27.0711 27.0711C25.1957 28.9464 22.6522 30 20 30C17.3478 30 14.8043 28.9464 12.9289 27.0711C11.0536 25.1957 10 22.6522 10 20C10 18.6868 10.2587 17.3864 10.7612 16.1732C11.2638 14.9599 12.0003 13.8575 12.9289 12.9289C14.8043 11.0536 17.3478 10 20 10C21.3132 10 22.6136 10.2587 23.8268 10.7612C25.0401 11.2638 26.1425 12.0003 27.0711 12.9289C27.9997 13.8575 28.7362 14.9599 29.2388 16.1732C29.7413 17.3864 30 18.6868 30 20ZM13.6066 15.005C13.6066 15.0202 13.6229 15.048 13.6554 15.0882C15.221 17.0155 17.517 18.1452 20 18.1452C22.4823 18.1452 24.7783 17.0155 26.343 15.0882C26.3761 15.048 26.3926 15.0202 26.3926 15.005C26.3926 14.9907 26.3761 14.9635 26.343 14.9233C24.7783 12.996 22.4815 11.8663 19.9992 11.8663C17.517 11.867 15.221 12.996 13.6554 14.9241C13.6229 14.9643 13.6066 14.9912 13.6066 15.005ZM19.3168 20.0031C19.3168 20 19.3148 19.9982 19.3107 19.9977C16.6524 19.7789 14.4198 18.6991 12.6128 16.7583C12.6085 16.7538 12.6032 16.7504 12.5974 16.7484C12.5915 16.7464 12.5853 16.7458 12.5792 16.7468C12.5732 16.7478 12.5675 16.7503 12.5627 16.754C12.5579 16.7577 12.5541 16.7626 12.5517 16.7682C12.1029 17.8017 11.8785 18.8792 11.8785 20.0008C11.8785 21.1223 12.1031 22.1998 12.5525 23.2333C12.5549 23.2388 12.5587 23.2435 12.5634 23.2471C12.5682 23.2508 12.5737 23.2532 12.5797 23.2541C12.5856 23.2551 12.5917 23.2546 12.5975 23.2527C12.6033 23.2509 12.6085 23.2476 12.6128 23.2433C14.4198 21.3024 16.6524 20.2224 19.3107 20.0031C19.3148 20.0025 19.3168 20.0025 19.3168 20.0031ZM20.6488 19.9992C20.6488 20.0023 20.6511 20.0041 20.6557 20.0046C23.3298 20.2239 25.5759 21.3096 27.3941 23.2616C27.3984 23.2661 27.4037 23.2694 27.4096 23.2714C27.4155 23.2733 27.4218 23.2738 27.4279 23.2727C27.4339 23.2717 27.4396 23.2691 27.4444 23.2653C27.4491 23.2615 27.4528 23.2565 27.4552 23.2509C27.9065 22.2113 28.132 21.1274 28.1314 19.9992C28.1309 18.8711 27.9047 17.7872 27.4529 16.7476C27.4505 16.742 27.4467 16.7371 27.4419 16.7334C27.4371 16.7297 27.4314 16.7272 27.4254 16.7262C27.4193 16.7252 27.4131 16.7258 27.4072 16.7278C27.4014 16.7298 27.3961 16.7332 27.3918 16.7377C25.5752 18.6907 23.3298 19.7779 20.6557 19.9992C20.6511 19.9997 20.6488 19.9997 20.6488 19.9992ZM26.3926 24.9943C26.3926 24.979 26.3764 24.9513 26.3438 24.9111C24.7783 22.9845 22.4823 21.8556 20.0008 21.8563C17.5193 21.8563 15.2233 22.986 13.6585 24.9134C13.6259 24.9536 13.6096 24.9813 13.6096 24.9966C13.6096 25.0103 13.6259 25.0373 13.6585 25.0775C15.224 27.0048 17.52 28.1337 20.0015 28.133C22.4838 28.133 24.779 27.0033 26.3438 25.0759C26.3764 25.0357 26.3926 25.0085 26.3926 24.9943Z" fill="#216351"/>
</svg>
