<svg width="40" height="40" viewBox="0 0 40 40" fill="none" xmlns="http://www.w3.org/2000/svg">
<path d="M6 0.5H34C37.0376 0.5 39.5 2.96243 39.5 6V34C39.5 37.0376 37.0376 39.5 34 39.5H6C2.96243 39.5 0.5 37.0376 0.5 34V6C0.5 2.96243 2.96243 0.5 6 0.5Z" fill="white"/>
<path d="M6 0.5H34C37.0376 0.5 39.5 2.96243 39.5 6V34C39.5 37.0376 37.0376 39.5 34 39.5H6C2.96243 39.5 0.5 37.0376 0.5 34V6C0.5 2.96243 2.96243 0.5 6 0.5Z" stroke="#F7F7F7"/>
<path d="M23.3393 19.9934C23.3403 20.7018 23.3406 21.7883 23.34 23.2528C23.34 23.2609 23.3416 23.2689 23.3447 23.2763C23.3478 23.2838 23.3523 23.2906 23.358 23.2963C23.3638 23.302 23.3705 23.3065 23.378 23.3096C23.3855 23.3127 23.3934 23.3143 23.4015 23.3143C24.6368 23.3184 26.3369 23.3174 28.5019 23.3112C29.1773 23.3088 29.7485 23.6993 29.9407 24.3528C29.9802 24.4871 29.9999 24.7205 29.9999 25.0529C30.0004 25.8401 29.9991 26.9971 29.996 28.5239C29.9944 29.3617 29.3548 29.9957 28.5205 29.9957C26.5159 29.9957 25.3846 29.997 25.1268 29.9996C24.7081 30.0043 24.407 29.969 24.2233 29.8938C23.856 29.7434 23.5875 29.4771 23.4179 29.0949C23.3364 28.9118 23.3004 28.5701 23.3097 28.0696C23.3164 27.69 23.3172 26.1347 23.312 23.4037C23.312 23.3899 23.3065 23.3766 23.2968 23.3669C23.287 23.3571 23.2737 23.3516 23.2599 23.3516L16.7518 23.3306C16.7433 23.3305 16.735 23.3321 16.7271 23.3353C16.7193 23.3385 16.7122 23.3432 16.7062 23.3492C16.7002 23.3552 16.6954 23.3624 16.6921 23.3703C16.6889 23.3782 16.6872 23.3866 16.6872 23.3952C16.6841 26.2771 16.6846 27.788 16.6888 27.928C16.7059 28.5156 16.668 28.9121 16.5751 29.1174C16.391 29.5271 16.0758 29.8015 15.6296 29.9405C15.3713 30.0206 14.9853 29.9949 14.6296 29.9965C13.7056 30.0006 12.6491 29.9991 11.46 29.9918C10.741 29.9879 10.134 29.4901 10.0227 28.7791C10.0076 28.6836 10.0004 28.4399 10.0009 28.0478C10.003 26.8644 10.0027 25.9363 10.0001 25.2637C9.99855 24.8716 10.0211 24.5472 10.1892 24.2306C10.3936 23.8469 10.6937 23.5764 11.0896 23.4193C11.2873 23.341 11.6019 23.3049 12.0336 23.3112C12.4761 23.3179 13.9944 23.3184 16.5884 23.3127C16.6064 23.3127 16.6237 23.3056 16.6365 23.2929C16.6493 23.2803 16.6566 23.2631 16.6568 23.245C16.661 22.1746 16.6623 21.0952 16.6607 20.0066C16.6597 19.2982 16.6594 18.2115 16.66 16.7464C16.6598 16.7302 16.6532 16.7148 16.6417 16.7035C16.6302 16.6921 16.6147 16.6857 16.5985 16.6857C15.3632 16.6816 13.6631 16.6826 11.4981 16.6888C10.8227 16.6912 10.2515 16.3007 10.0593 15.6472C10.0198 15.5129 10.0001 15.2795 10.0001 14.9471C9.99959 14.1599 10.0009 13.0029 10.004 11.4761C10.0056 10.6383 10.6452 10.0043 11.4795 10.0043C13.4841 10.0043 14.6154 10.003 14.8732 10.0004C15.2919 9.99574 15.593 10.031 15.7767 10.1062C16.144 10.2566 16.4125 10.5229 16.5821 10.9051C16.6636 11.0882 16.6996 11.4299 16.6903 11.9304C16.6836 12.31 16.6828 13.8653 16.688 16.5963C16.688 16.6101 16.6935 16.6233 16.7032 16.6331C16.713 16.6429 16.7263 16.6484 16.7401 16.6484L23.2482 16.6694C23.2567 16.6695 23.265 16.6679 23.2729 16.6647C23.2807 16.6615 23.2878 16.6568 23.2938 16.6508C23.2998 16.6448 23.3046 16.6376 23.3079 16.6297C23.3111 16.6218 23.3128 16.6134 23.3128 16.6048C23.3159 13.7229 23.3154 12.212 23.3112 12.072C23.2941 11.4844 23.332 11.0879 23.4249 10.8826C23.609 10.4729 23.9242 10.1985 24.3704 10.0595C24.6287 9.97941 25.0147 10.0051 25.3704 10.0035C26.2944 9.99937 27.3509 10.0009 28.54 10.0082C29.259 10.0121 29.866 10.5099 29.9773 11.2209C29.9924 11.3164 29.9996 11.5601 29.9991 11.9522C29.997 13.1356 29.9973 14.0637 29.9999 14.7363C30.0014 15.1284 29.9789 15.4527 29.8108 15.7694C29.6064 16.1531 29.3063 16.4236 28.9104 16.5807C28.7127 16.659 28.3981 16.6951 27.9664 16.6888C27.5239 16.6821 26.0056 16.6816 23.4116 16.6873C23.3936 16.6873 23.3763 16.6944 23.3635 16.7071C23.3507 16.7197 23.3434 16.7369 23.3432 16.755C23.339 17.8254 23.3377 18.9048 23.3393 19.9934Z" fill="#216351"/>
</svg>
