<svg width="40" height="40" viewBox="0 0 40 40" fill="none" xmlns="http://www.w3.org/2000/svg">
<path d="M6 0.5H34C37.0376 0.5 39.5 2.96243 39.5 6V34C39.5 37.0376 37.0376 39.5 34 39.5H6C2.96243 39.5 0.5 37.0376 0.5 34V6C0.5 2.96243 2.96243 0.5 6 0.5Z" fill="white"/>
<path d="M6 0.5H34C37.0376 0.5 39.5 2.96243 39.5 6V34C39.5 37.0376 37.0376 39.5 34 39.5H6C2.96243 39.5 0.5 37.0376 0.5 34V6C0.5 2.96243 2.96243 0.5 6 0.5Z" stroke="#F7F7F7"/>
<path d="M20 10C20.4565 10 20.709 10.0003 20.7575 10.0008C20.7704 10.0008 20.7828 10.0058 20.792 10.0149C20.8012 10.024 20.8065 10.0363 20.8067 10.0492C20.8203 11.4029 21.6088 12.5717 22.8617 13.0906C24.1153 13.6102 25.4992 13.3405 26.4665 12.3937C26.4757 12.3846 26.488 12.3796 26.5009 12.3796C26.5138 12.3796 26.5262 12.3846 26.5354 12.3937C26.5697 12.428 26.7482 12.6065 27.0709 12.9292C27.3936 13.2519 27.5721 13.4304 27.6064 13.4648C27.6154 13.474 27.6205 13.4863 27.6205 13.4992C27.6205 13.5121 27.6154 13.5245 27.6064 13.5337C26.6596 14.501 26.3899 15.8849 26.9088 17.1386C27.4284 18.3915 28.5972 19.18 29.9508 19.1944C29.9636 19.1946 29.9758 19.1998 29.9848 19.2088C29.9939 19.2179 29.999 19.2301 29.9992 19.2429C29.9997 19.2914 30 19.5439 30 20.0004C30 20.4569 29.9997 20.7091 29.9992 20.7571C29.9992 20.7636 29.998 20.77 29.9955 20.776C29.993 20.7819 29.9894 20.7874 29.9848 20.7919C29.9803 20.7965 29.9748 20.8001 29.9688 20.8026C29.9629 20.8051 29.9565 20.8063 29.95 20.8063C28.5972 20.8207 27.4284 21.6085 26.9088 22.8622C26.3899 24.1151 26.6588 25.499 27.6057 26.4663C27.6147 26.4755 27.6197 26.4879 27.6197 26.5008C27.6197 26.5137 27.6147 26.526 27.6057 26.5352C27.5718 26.5701 27.3936 26.7489 27.0709 27.0715C26.7482 27.3942 26.5695 27.5725 26.5346 27.6063C26.5254 27.6154 26.513 27.6204 26.5002 27.6204C26.4873 27.6204 26.4749 27.6154 26.4657 27.6063C25.4992 26.6595 24.1153 26.3906 22.8617 26.9094C21.6081 27.4283 20.8203 28.5971 20.8059 29.9508C20.8059 29.9638 20.8008 29.9763 20.7915 29.9856C20.7823 29.9948 20.7698 30 20.7567 30C20.7087 30 20.4565 30 20 30C19.5435 30 19.291 29.9997 19.2425 29.9992C19.2296 29.9992 19.2172 29.9942 19.208 29.9851C19.1988 29.976 19.1935 29.9637 19.1933 29.9508C19.1797 28.5971 18.3912 27.4283 17.1383 26.9094C15.8847 26.3898 14.5008 26.6595 13.5336 27.6063C13.5244 27.6154 13.512 27.6204 13.4991 27.6204C13.4862 27.6204 13.4738 27.6154 13.4646 27.6063C13.4303 27.572 13.2518 27.3935 12.9291 27.0708C12.6064 26.7481 12.4279 26.5696 12.3936 26.5352C12.3846 26.526 12.3795 26.5137 12.3795 26.5008C12.3795 26.4879 12.3846 26.4755 12.3936 26.4663C13.3404 25.499 13.6101 24.1151 13.0912 22.8614C12.5716 21.6085 11.4028 20.82 10.0492 20.8063C10.0363 20.8062 10.024 20.8009 10.0149 20.7917C10.0058 20.7824 10.0008 20.77 10.0008 20.7571C10.0003 20.7086 10 20.4561 10 19.9996C10 19.5431 10.0003 19.2909 10.0008 19.2429C10.0008 19.2298 10.0059 19.2173 10.0152 19.2081C10.0244 19.1988 10.0369 19.1937 10.05 19.1937C11.4028 19.1793 12.5716 18.3915 13.0912 17.1378C13.6101 15.8849 13.3412 14.501 12.3943 13.5337C12.3853 13.5245 12.3803 13.5121 12.3803 13.4992C12.3803 13.4863 12.3853 13.474 12.3943 13.4648C12.4282 13.4299 12.6064 13.2511 12.9291 12.9285C13.2518 12.6058 13.4305 12.4275 13.4654 12.3937C13.4746 12.3846 13.487 12.3796 13.4999 12.3796C13.5127 12.3796 13.5251 12.3846 13.5343 12.3937C14.5008 13.3405 15.8847 13.6094 17.1383 13.0906C18.3919 12.5717 19.1797 11.4029 19.1941 10.0492C19.1943 10.0363 19.1995 10.024 19.2088 10.0149C19.218 10.0058 19.2304 10.0008 19.2433 10.0008C19.2913 10.0003 19.5435 10 20 10Z" fill="#216351"/>
</svg>
